<?xml version="1.0" encoding="UTF-8"?> <svg xmlns="http://www.w3.org/2000/svg" width="300" height="106" viewBox="0 0 300 106" fill="none"> <g clip-path="url(#clip0_207_1791)"> <path d="M207.688 46.7425L203.785 50.925L206.173 55.1325H203.783L201.383 50.925L200.39 55.1325H198.205L200.188 46.745H202.372L201.48 50.5325L204.99 46.745H207.688V46.7425Z" fill="white"></path> <path d="M213.887 46.7425H216.34L212.03 53.2375C211.562 53.94 211.055 54.455 210.508 54.7825C209.958 55.1075 209.322 55.2725 208.602 55.2725C208.237 55.2725 207.867 55.225 207.492 55.1325L207.925 53.2525C208.185 53.2775 208.4 53.29 208.57 53.29C209.078 53.29 209.473 53.1375 209.755 52.8325L208.27 46.745H210.57L211.432 50.545L213.887 46.7425Z" fill="white"></path> <path d="M215.223 55.13L217.205 46.7425H223.152L222.69 48.7125H218.928L218.637 49.945H219.997C220.862 49.945 221.527 50.16 221.992 50.5875C222.457 51.015 222.667 51.6025 222.622 52.3475C222.572 53.17 222.228 53.84 221.585 54.355C220.943 54.8725 220.135 55.13 219.16 55.13H215.223ZM217.835 53.3H219.577C219.84 53.3 220.05 53.2275 220.208 53.085C220.365 52.94 220.45 52.7375 220.467 52.475C220.482 52.2375 220.433 52.05 220.318 51.91C220.203 51.77 220.04 51.7 219.827 51.7H218.227L217.835 53.3Z" fill="white"></path> <path d="M223.758 51.2175C223.808 49.955 224.345 48.865 225.367 47.945C226.39 47.025 227.553 46.575 228.855 46.5925C230.043 46.575 231.018 46.96 231.778 47.75C232.54 48.5375 232.875 49.5075 232.79 50.66C232.738 51.9225 232.202 53.0125 231.18 53.9325C230.157 54.8525 228.995 55.3025 227.693 55.2875C226.505 55.305 225.53 54.92 224.77 54.13C224.008 53.3375 223.67 52.3675 223.758 51.2175ZM230.548 50.7575C230.588 50.105 230.425 49.5825 230.058 49.1875C229.693 48.795 229.2 48.5975 228.58 48.5975C227.895 48.5975 227.303 48.8375 226.808 49.315C226.313 49.795 226.043 50.3925 226 51.1125C225.96 51.765 226.123 52.2875 226.49 52.6825C226.855 53.0775 227.348 53.2725 227.968 53.2725C228.655 53.2725 229.245 53.0325 229.74 52.555C230.233 52.0775 230.503 51.48 230.548 50.7575Z" fill="white"></path> <path d="M242.535 46.7425L238.633 50.925L241.02 55.1325H238.63L236.23 50.925L235.238 55.1325H233.053L235.035 46.745H237.223L236.33 50.5325L239.84 46.745H242.535V46.7425Z" fill="white"></path> <path d="M245.443 55.13L247.425 46.7425H250.348C251.313 46.7425 252.065 46.9875 252.602 47.48C253.14 47.9725 253.385 48.6325 253.335 49.4625C253.28 50.3775 252.893 51.1175 252.178 51.68C251.46 52.2425 250.548 52.525 249.438 52.525H248.242L247.628 55.13H245.443ZM248.69 50.6175H249.923C250.26 50.6175 250.535 50.5275 250.747 50.345C250.957 50.1625 251.072 49.915 251.092 49.6025C251.11 49.305 251.042 49.0725 250.887 48.9025C250.732 48.7325 250.508 48.6475 250.21 48.6475H249.167L248.69 50.6175Z" fill="white"></path> <path d="M253.803 51.2175C253.853 49.955 254.39 48.865 255.413 47.945C256.435 47.025 257.598 46.575 258.9 46.5925C260.088 46.575 261.063 46.96 261.823 47.75C262.585 48.5375 262.92 49.5075 262.835 50.66C262.782 51.9225 262.248 53.0125 261.225 53.9325C260.203 54.8525 259.04 55.3025 257.737 55.2875C256.55 55.305 255.575 54.92 254.815 54.13C254.053 53.3375 253.715 52.3675 253.803 51.2175ZM260.59 50.7575C260.63 50.105 260.468 49.5825 260.1 49.1875C259.735 48.795 259.243 48.5975 258.623 48.5975C257.938 48.5975 257.345 48.8375 256.85 49.315C256.355 49.795 256.085 50.3925 256.043 51.1125C256.003 51.765 256.165 52.2875 256.533 52.6825C256.898 53.0775 257.39 53.2725 258.01 53.2725C258.698 53.2725 259.288 53.0325 259.783 52.555C260.278 52.0775 260.548 51.48 260.59 50.7575Z" fill="white"></path> <path d="M263.665 51.2175C263.715 49.955 264.255 48.8625 265.28 47.9375C266.305 47.015 267.475 46.565 268.788 46.59C269.67 46.59 270.428 46.8 271.063 47.22C271.698 47.64 272.148 48.235 272.415 49.005L270.573 50.06C270.193 49.085 269.513 48.5975 268.538 48.5975C267.818 48.5975 267.21 48.835 266.715 49.31C266.22 49.785 265.95 50.385 265.908 51.115C265.868 51.7675 266.03 52.29 266.398 52.685C266.763 53.08 267.273 53.275 267.925 53.275C268.79 53.275 269.565 52.8525 270.253 52.005L271.718 53.2125C271.228 53.8725 270.63 54.385 269.922 54.745C269.215 55.105 268.453 55.285 267.64 55.285C266.438 55.3025 265.45 54.9175 264.685 54.135C263.915 53.35 263.578 52.3775 263.665 51.2175Z" fill="white"></path> <path d="M272.803 51.2175C272.853 49.955 273.393 48.8625 274.418 47.9375C275.443 47.015 276.613 46.565 277.925 46.59C278.808 46.59 279.565 46.8 280.2 47.22C280.835 47.64 281.285 48.235 281.553 49.005L279.71 50.06C279.33 49.085 278.65 48.5975 277.675 48.5975C276.955 48.5975 276.348 48.835 275.853 49.31C275.358 49.785 275.088 50.385 275.045 51.115C275.005 51.7675 275.168 52.29 275.535 52.685C275.9 53.08 276.41 53.275 277.063 53.275C277.928 53.275 278.703 52.8525 279.39 52.005L280.855 53.2125C280.365 53.8725 279.768 54.385 279.06 54.745C278.353 55.105 277.59 55.285 276.778 55.285C275.575 55.3025 274.588 54.9175 273.823 54.135C273.053 53.35 272.715 52.3775 272.803 51.2175Z" fill="white"></path> <path d="M290.19 46.59H290.888L288.87 55.13H286.685L287.698 50.8225L282.1 55.2825H281.402L283.42 46.7425H285.605L284.592 51.05L290.19 46.59Z" fill="white"></path> <path d="M299.302 46.59H300L297.983 55.13H295.797L296.81 50.8225L291.212 55.2825H290.515L292.533 46.7425H294.717L293.705 51.05L299.302 46.59Z" fill="white"></path> <path d="M194.38 70.4075L196.32 62.02H203.628L201.685 70.4075H199.5L200.988 63.99H198.053L196.565 70.4075H194.38Z" fill="white"></path> <path d="M203.913 66.4925C203.958 65.23 204.488 64.14 205.505 63.22C206.523 62.3 207.682 61.85 208.985 61.8675C210.172 61.85 211.148 62.235 211.913 63.025C212.678 63.8125 213.02 64.7825 212.937 65.935C212.892 67.1975 212.363 68.2875 211.345 69.2075C210.327 70.1275 209.168 70.5775 207.865 70.56C206.678 70.5775 205.702 70.1925 204.935 69.4025C204.172 68.615 203.833 67.645 203.913 66.4925ZM210.7 66.035C210.735 65.3825 210.57 64.86 210.202 64.465C209.835 64.07 209.343 63.875 208.723 63.875C208.038 63.875 207.448 64.115 206.955 64.5925C206.463 65.07 206.195 65.67 206.155 66.39C206.12 67.0425 206.285 67.565 206.652 67.96C207.02 68.355 207.513 68.55 208.133 68.55C208.82 68.55 209.407 68.31 209.9 67.8325C210.392 67.355 210.657 66.755 210.7 66.035Z" fill="white"></path> <path d="M220.315 70.66L220.563 69.6425C219.648 69.66 218.86 69.355 218.205 68.7275C217.55 68.1 217.253 67.3625 217.318 66.515C217.363 65.3875 217.827 64.4575 218.712 63.725C219.595 62.9925 220.68 62.635 221.968 62.65H222.182L222.385 61.76H224.57L224.367 62.6625C225.275 62.645 226.052 62.955 226.697 63.59C227.345 64.225 227.635 64.9575 227.572 65.7875C227.527 66.915 227.063 67.845 226.178 68.5775C225.295 69.31 224.208 69.6675 222.923 69.65H222.732L222.497 70.655H220.315V70.66ZM220.982 67.8025L221.75 64.51H221.7C221.047 64.51 220.513 64.6825 220.095 65.025C219.678 65.3675 219.453 65.82 219.423 66.3775C219.398 66.8275 219.522 67.175 219.795 67.425C220.07 67.6775 220.465 67.8025 220.982 67.8025ZM223.182 67.8025H223.22C223.865 67.8025 224.392 67.63 224.805 67.2875C225.217 66.945 225.44 66.4925 225.473 65.935C225.498 65.485 225.375 65.1375 225.105 64.8875C224.835 64.6375 224.445 64.5125 223.938 64.5125L223.182 67.8025Z" fill="white"></path> <path d="M234.625 62.02H237.077L232.803 68.515C232.34 69.2175 231.835 69.7325 231.288 70.06C230.74 70.385 230.105 70.55 229.385 70.55C229.02 70.55 228.65 70.5025 228.275 70.41L228.697 68.53C228.957 68.555 229.172 68.5675 229.342 68.5675C229.85 68.5675 230.245 68.415 230.525 68.11L229.008 62.0225H231.307L232.188 65.8225L234.625 62.02Z" fill="white"></path> <path d="M237.805 70.4075L239.292 63.99H236.775L237.227 62.02H244.445L243.992 63.99H241.477L239.99 70.4075H237.805Z" fill="white"></path> <path d="M243.473 70.4075L245.413 62.02H251.36L250.908 63.99H247.145L246.86 65.2225H248.22C249.085 65.2225 249.75 65.4375 250.217 65.865C250.685 66.2925 250.897 66.88 250.855 67.625C250.81 68.4475 250.467 69.1175 249.827 69.6325C249.19 70.15 248.383 70.4075 247.408 70.4075H243.473ZM246.077 68.5775H247.82C248.083 68.5775 248.292 68.505 248.447 68.3625C248.602 68.2175 248.69 68.015 248.705 67.7525C248.718 67.515 248.668 67.3275 248.553 67.1875C248.438 67.0475 248.275 66.9775 248.062 66.9775H246.462L246.077 68.5775Z" fill="white"></path> <path d="M251.99 66.4925C252.035 65.23 252.565 64.14 253.583 63.22C254.6 62.3 255.76 61.85 257.062 61.8675C258.25 61.85 259.225 62.235 259.99 63.025C260.755 63.8125 261.098 64.7825 261.015 65.935C260.97 67.1975 260.44 68.2875 259.422 69.2075C258.405 70.1275 257.245 70.5775 255.943 70.56C254.755 70.5775 253.78 70.1925 253.012 69.4025C252.25 68.615 251.91 67.645 251.99 66.4925ZM258.777 66.035C258.812 65.3825 258.647 64.86 258.28 64.465C257.912 64.07 257.42 63.875 256.8 63.875C256.115 63.875 255.525 64.115 255.032 64.5925C254.54 65.07 254.272 65.67 254.232 66.39C254.197 67.0425 254.362 67.565 254.73 67.96C255.097 68.355 255.59 68.55 256.21 68.55C256.897 68.55 257.485 68.31 257.978 67.8325C258.47 67.355 258.735 66.755 258.777 66.035Z" fill="white"></path> <path d="M263.97 62.02H270.095L268.152 70.4075H265.967L267.455 63.99H265.575C265.158 65.7025 264.755 67.0175 264.365 67.935C263.975 68.855 263.54 69.515 263.06 69.9175C262.58 70.32 261.985 70.535 261.27 70.56C260.972 70.56 260.705 70.51 260.465 70.4075L260.897 68.5525C260.965 68.57 261.073 68.5775 261.225 68.5775C261.665 68.5775 262.07 68.1975 262.438 67.44C262.805 66.6825 263.182 65.4625 263.562 63.7875L263.97 62.02Z" fill="white"></path> <path d="M276.64 62.02H279.092L274.818 68.515C274.355 69.2175 273.85 69.7325 273.302 70.06C272.755 70.385 272.12 70.55 271.4 70.55C271.035 70.55 270.665 70.5025 270.29 70.41L270.712 68.53C270.972 68.555 271.188 68.5675 271.358 68.5675C271.865 68.5675 272.26 68.415 272.54 68.11L271.022 62.0225H273.323L274.203 65.8225L276.64 62.02Z" fill="white"></path> <path d="M4.81975 67.8815C4.64725 67.974 4.44725 68.0115 4.25225 67.989H0.502253C0.0972526 67.989 -0.0652474 67.8115 0.0197526 67.459L3.04725 54.5215C3.20225 53.874 3.43725 53.249 3.74725 52.659C4.06225 52.054 4.47975 51.5115 4.98225 51.049C5.51725 50.564 6.13975 50.1815 6.81725 49.9265C7.60725 49.6315 8.44725 49.489 9.28975 49.504H17.3198C17.5323 49.504 17.6598 49.5365 17.7073 49.599C17.7548 49.6615 17.7423 49.839 17.6723 50.139L16.9748 53.124C16.9498 53.2965 16.8748 53.4565 16.7598 53.5865C16.6373 53.6765 16.4873 53.7165 16.3348 53.704H9.81225C9.51225 53.694 9.21475 53.744 8.93475 53.849C8.72475 53.9265 8.53475 54.049 8.37475 54.204C8.23725 54.3415 8.12975 54.5015 8.04975 54.679C7.97475 54.849 7.91725 55.0265 7.87225 55.2065L7.48975 56.844H14.4348C14.6473 56.844 14.7748 56.8815 14.8198 56.949C14.8648 57.0165 14.8523 57.2065 14.7823 57.504L14.1398 60.2515C14.0448 60.6565 13.8323 60.859 13.4973 60.859H6.55225L5.00725 67.4615C4.98725 67.614 4.92225 67.7615 4.81975 67.8815Z" fill="white"></path> <path d="M33.5273 58.719C33.2148 60.099 32.7423 61.4365 32.1173 62.7065C31.5673 63.829 30.8223 64.849 29.9223 65.7165C29.0373 66.5515 27.9923 67.199 26.8498 67.619C25.5623 68.0765 24.2048 68.3015 22.8398 68.279C21.4148 68.279 20.2273 68.064 19.2798 67.634C18.3898 67.249 17.6423 66.594 17.1473 65.759C16.6423 64.839 16.3698 63.809 16.3573 62.759C16.3248 61.4165 16.4748 60.074 16.7998 58.7715C17.1098 57.4015 17.6023 56.079 18.2648 54.839C18.8598 53.714 19.6323 52.6915 20.5548 51.814C21.4398 50.9815 22.4748 50.3265 23.6073 49.8865C24.8123 49.4265 26.0923 49.199 27.3823 49.214C28.8098 49.214 29.9948 49.439 30.9348 49.8865C31.8323 50.294 32.5873 50.9615 33.1023 51.8015C33.6273 52.7165 33.9173 53.7465 33.9448 54.799C33.9873 56.1165 33.8473 57.4365 33.5273 58.719ZM28.2648 58.744C28.4023 58.094 28.4998 57.439 28.5548 56.7765C28.6098 56.2315 28.5748 55.684 28.4473 55.1515C28.3423 54.7215 28.0973 54.3365 27.7523 54.0565C27.3348 53.759 26.8273 53.6165 26.3173 53.6465C25.8098 53.6465 25.3123 53.7815 24.8773 54.044C24.4123 54.3215 24.0048 54.6865 23.6773 55.114C23.3048 55.5965 22.9973 56.124 22.7573 56.684C22.4898 57.289 22.2823 57.9165 22.1323 58.559C21.9573 59.279 21.8398 60.0115 21.7773 60.749C21.7223 61.304 21.7698 61.864 21.9198 62.399C22.0398 62.819 22.2973 63.1865 22.6523 63.4415C23.0748 63.709 23.5723 63.839 24.0723 63.8115C24.6173 63.8215 25.1523 63.679 25.6198 63.399C26.0848 63.114 26.4873 62.7365 26.8023 62.2915C27.1598 61.789 27.4523 61.244 27.6698 60.669C27.9123 60.044 28.1123 59.399 28.2648 58.744Z" fill="white"></path> <path d="M67.6823 57.9015C68.0923 58.0865 68.4572 58.3615 68.7472 58.7065C69.0097 59.029 69.2123 59.394 69.3398 59.789C69.4673 60.189 69.5273 60.609 69.5223 61.029C69.5198 61.459 69.4673 61.889 69.3698 62.309C69.1798 63.139 68.8298 63.924 68.3398 64.6215C67.8523 65.3165 67.2498 65.924 66.5573 66.419C65.8498 66.9265 65.0697 67.3165 64.2397 67.579C63.3847 67.854 62.4922 67.9915 61.5947 67.989H54.7298C54.0073 67.989 53.5723 67.854 53.4248 67.579C53.2773 67.304 53.2772 66.8615 53.4197 66.2465L56.9323 51.2465C57.0198 50.764 57.2348 50.3115 57.5548 49.9415C57.8323 49.649 58.3348 49.504 59.0548 49.504H65.9223C66.6498 49.4965 67.3748 49.5865 68.0773 49.769C68.6698 49.9165 69.2173 50.2065 69.6748 50.614C70.0998 51.014 70.4023 51.5265 70.5448 52.094C70.7023 52.809 70.6823 53.5515 70.4848 54.259C70.3023 54.994 69.9522 55.6765 69.4622 56.254C68.9847 56.8615 68.3898 57.369 67.7148 57.7465L67.6823 57.9015ZM60.7373 56.3165H63.4923C63.8523 56.3115 64.2072 56.2215 64.5247 56.0515C64.8622 55.874 65.0898 55.5315 65.2098 55.0215C65.3048 54.6165 65.2572 54.309 65.0722 54.0965C64.8372 53.8665 64.5147 53.7515 64.1897 53.7815H61.3323L60.7373 56.3165ZM64.2998 61.9665C64.4323 61.544 64.3722 61.0865 64.1347 60.7115C63.9047 60.3865 63.4998 60.224 62.9223 60.2215H59.8247L59.0172 63.6815H62.1147C62.4247 63.689 62.7323 63.6365 63.0198 63.524C63.2598 63.424 63.4797 63.2815 63.6697 63.1015C63.8372 62.939 63.9797 62.7515 64.0872 62.5465C64.1797 62.3615 64.2498 62.169 64.2998 61.9665Z" fill="white"></path> <path d="M83.4423 67.9865H75.2823C74.2248 67.9865 73.4023 67.8365 72.8148 67.5365C72.2773 67.2865 71.8298 66.874 71.5323 66.3615C71.2623 65.8615 71.1248 65.304 71.1323 64.7365C71.1323 64.1415 71.1998 63.5465 71.3348 62.9665L73.3123 54.519C73.4673 53.8715 73.7023 53.2465 74.0123 52.6565C74.3273 52.054 74.7473 51.509 75.2473 51.0465C75.7823 50.5615 76.4048 50.179 77.0823 49.924C77.8723 49.629 78.7123 49.4865 79.5573 49.5015H87.3473C87.5598 49.5015 87.6873 49.534 87.7348 49.5965C87.7823 49.659 87.7698 49.839 87.7023 50.1365L87.0073 53.124C86.9798 53.2965 86.9048 53.4565 86.7898 53.584C86.6673 53.674 86.5173 53.7165 86.3673 53.704H80.0798C79.7798 53.694 79.4823 53.744 79.2023 53.849C78.9923 53.929 78.8023 54.049 78.6423 54.2065C78.5048 54.344 78.3948 54.504 78.3173 54.6815C78.2448 54.8515 78.1848 55.029 78.1398 55.209L77.8798 56.319H84.9598C85.1698 56.319 85.2998 56.3565 85.3448 56.424C85.3873 56.609 85.3723 56.804 85.3048 56.9815L84.6623 59.7265C84.5673 60.1315 84.3523 60.334 84.0173 60.334H76.9398L76.4773 62.314C76.4023 62.5715 76.3798 62.8415 76.4098 63.1065C76.4298 63.274 76.5098 63.429 76.6373 63.5415C76.7698 63.644 76.9273 63.7065 77.0948 63.7265C77.3023 63.754 77.5098 63.7665 77.7198 63.764H84.4273C84.6373 63.764 84.7673 63.7965 84.8148 63.859C84.8623 63.9215 84.8523 64.1015 84.7823 64.399L84.0823 67.3865C83.9923 67.784 83.7748 67.9865 83.4423 67.9865Z" fill="white"></path> <path d="M103.207 53.7015H98.6923L95.4773 67.4315C95.4523 67.5915 95.3848 67.7415 95.2848 67.869C95.1123 67.9715 94.9123 68.0115 94.7123 67.989H90.9623C90.5573 67.989 90.3998 67.804 90.4873 67.434L93.6998 53.704H89.2873C88.9173 53.704 88.7798 53.5015 88.8748 53.0965L89.5648 50.139C89.5873 49.9365 89.6723 49.7465 89.8123 49.599C89.9523 49.5265 90.1098 49.494 90.2673 49.5065H104.185C104.33 49.489 104.475 49.5215 104.597 49.599C104.662 49.6615 104.66 49.8415 104.59 50.139L103.905 53.0965C103.807 53.499 103.577 53.7015 103.207 53.7015Z" fill="white"></path> <path d="M40.9648 57.9815L38.7073 67.434C38.6823 67.594 38.6148 67.744 38.5123 67.8715C38.3398 67.974 38.1398 68.0165 37.9423 67.9915H34.1923C33.7873 67.9915 33.6273 67.8065 33.7173 67.4365L37.4998 51.594C37.6973 50.7665 37.9648 50.2115 38.3073 49.929C38.6448 49.649 39.1848 49.5065 39.9248 49.5065H41.2973C41.5248 49.504 41.7498 49.5165 41.9748 49.5465C42.1498 49.569 42.3198 49.624 42.4773 49.7065C42.6373 49.794 42.7748 49.9165 42.8823 50.0615C43.0273 50.2615 43.1523 50.474 43.2598 50.6965L45.6873 56.3465L46.9773 59.5665H47.1623L49.4298 50.0615C49.4548 49.9015 49.5248 49.7515 49.6248 49.624C49.7948 49.5215 49.9948 49.479 50.1923 49.504H53.9423C54.3473 49.504 54.5073 49.689 54.4173 50.059L50.6373 65.9015C50.5198 66.449 50.2698 66.9615 49.9123 67.394C49.5723 67.7915 49.0048 67.989 48.2123 67.989H46.8398C46.6173 67.9915 46.3948 67.9765 46.1748 67.949C45.9948 67.929 45.8198 67.874 45.6573 67.7915C45.4948 67.7015 45.3548 67.579 45.2398 67.434C45.0898 67.2415 44.9673 67.0265 44.8748 66.799L42.4773 61.254L41.1448 57.979H40.9648V57.9815Z" fill="white"></path> <path d="M186.3 27.0575C182.038 20.15 175.67 20.06 172.592 22.185C169.955 24.0075 169.525 25.6475 169.348 27.115L169.2 27.12L168.97 20.06C168.97 20.06 168.585 17.495 166.083 17.26C163.58 17.0275 158.515 15.55 157.042 13.605C155.572 11.66 155.635 9.5625 155.635 9.5625L158.163 5.97L156.363 1.6225L152.137 0L147.913 1.625L146.113 5.9725L148.64 9.565C148.64 9.565 148.703 11.665 147.233 13.6075C145.763 15.5525 140.698 17.0275 138.193 17.2625C135.69 17.495 135.305 20.0625 135.305 20.0625L135.075 27.1225L134.928 27.1175C134.75 25.65 134.32 24.01 131.682 22.1875C128.605 20.0625 122.235 20.15 117.975 27.06C114.138 33.28 113.412 45.4625 123.24 54.3525C132.24 62.495 139.843 64.24 139.843 64.24L143.925 66.7675L145.708 65.8575L146.962 68.0625L143.863 70.29V74.1775L145.258 75.0875C145.758 75.4125 146.295 75.6725 146.86 75.86L147.7 76.14C147.687 76.875 147.555 79.5725 146.273 82.9225C146.223 83.01 146.172 83.0975 146.122 83.18C144.787 85.3625 142.312 86.8725 140.98 87.6825C140.9 87.73 140.825 87.7775 140.753 87.8225C140.178 88.175 139.938 88.5775 139.858 88.745C139.683 89.0375 139.588 89.575 139.61 90.075L139.568 93.735V93.8775L139.633 94.005C139.673 94.0825 139.728 94.16 139.828 94.2375L139.56 94.7375C139.292 94.7575 139.01 94.945 138.945 95.3325C138.863 95.81 138.578 97.49 138.348 99.105C137.893 102.282 138.008 102.655 138.068 102.855C138.145 103.107 138.33 103.325 138.652 103.54C138.962 103.82 139.458 104.08 140.125 104.317C141.358 104.787 143.698 105.397 147.86 105.657L147.93 105.662L147.975 105.665L148.025 105.667L148.117 105.672C149.345 105.745 150.663 105.782 152.035 105.782H152.09H152.133H152.175H152.23C153.602 105.782 154.92 105.745 156.148 105.672L156.235 105.667L156.288 105.665L156.335 105.662L156.405 105.657C160.567 105.4 162.907 104.787 164.14 104.317C164.785 104.09 165.27 103.837 165.58 103.567C165.928 103.345 166.125 103.117 166.205 102.855C166.268 102.655 166.38 102.282 165.925 99.105C165.695 97.49 165.407 95.8075 165.327 95.3325C165.26 94.9375 164.967 94.7525 164.697 94.7375L164.485 94.27C164.62 94.18 164.667 94.1025 164.702 94.0475L164.792 93.905V93.735L164.702 90.085C164.695 89.51 164.633 89.0375 164.458 88.7425C164.378 88.575 164.137 88.1725 163.562 87.82C163.49 87.775 163.415 87.73 163.335 87.68C162.005 86.8675 159.528 85.3575 158.193 83.1775C158.098 83.02 158.003 82.855 157.913 82.6825C156.713 79.4425 156.587 76.855 156.575 76.1375L157.415 75.8575C157.98 75.67 158.52 75.41 159.018 75.085L160.413 74.175V70.2875L157.312 68.06L158.045 66.765H160.348L164.43 64.2375C164.43 64.2375 172.033 62.4925 181.033 54.35C190.863 45.46 190.138 33.2775 186.3 27.0575ZM131.79 57.64C109.242 42.7375 120.393 26.9625 123.293 25.035C127.433 22.2875 130.482 23.635 131.79 25.915C133.097 28.195 132.335 31.02 132.335 31.02C132.335 31.02 129.503 29.4125 128.645 31.2925C127.688 33.3875 129.612 34.3125 131.027 34.3125C132.902 34.3125 135.258 32.0875 135.413 30.2125C135.438 30.21 135.465 30.205 135.492 30.2025L137.735 41.58C138.04 43.345 143.643 60.905 143.643 60.905C143.643 60.905 139.072 62.455 131.79 57.64ZM172.482 57.64C165.2 62.4525 160.633 60.905 160.633 60.905C160.633 60.905 166.235 43.345 166.54 41.58L168.783 30.2025C168.81 30.205 168.838 30.21 168.863 30.2125C169.015 32.0875 171.372 34.3125 173.247 34.3125C174.662 34.3125 176.588 33.3875 175.63 31.2925C174.773 29.4125 171.94 31.02 171.94 31.02C171.94 31.02 171.178 28.195 172.485 25.915C173.793 23.635 176.842 22.2875 180.982 25.035C183.88 26.9625 195.032 42.74 172.482 57.64Z" fill="white"></path> <path d="M122.68 22.2625C122.68 22.2625 117.477 26.2825 116.442 34.21C115.722 39.7325 117.015 46.65 122.652 52.5075C127.925 57.9875 136.867 62.7825 142.545 63.1325L144.083 63.03L146.22 66.7625H143.92L139.837 64.235C139.837 64.235 134.36 63.3925 126.952 57.8475C122.187 54.28 118.16 50.345 116.385 44.4225C111.488 28.0425 122.68 22.2625 122.68 22.2625Z" fill="url(#paint0_linear_207_1791)"></path> <path d="M128.367 32.475C128.367 32.475 128.07 33.9325 128.943 34.7925C129.868 35.7075 131.603 35.85 132.66 35.22C134.948 33.86 135.413 30.2125 135.413 30.2125C135.413 30.2125 134.425 33.4525 131.867 34.0475C128.64 34.8 128.367 32.475 128.367 32.475Z" fill="url(#paint1_linear_207_1791)"></path> <path d="M175.893 32.2725C175.893 32.2725 176.19 33.73 175.318 34.59C174.393 35.505 172.658 35.6475 171.6 35.0175C169.313 33.6575 168.848 30.01 168.848 30.01C168.848 30.01 169.835 33.25 172.393 33.845C175.62 34.5975 175.893 32.2725 175.893 32.2725Z" fill="url(#paint2_linear_207_1791)"></path> <path d="M152.68 7.38002L152.26 5.41752C152.26 5.41752 151.52 5.10752 150.54 4.46752C149.56 3.82752 150.05 1.45251 150.05 1.45251L148.742 1.99751L147.055 5.66502L149.56 9.38502C149.56 9.38502 150.632 9.09502 152.665 9.11752C153.992 9.13252 154.708 9.38502 154.708 9.38502L152.68 7.38002Z" fill="url(#paint3_linear_207_1791)"></path> <path d="M152.18 0.674988L155.525 2.08249L157.117 5.79749L154.795 9.38249L156.02 5.58749L154.705 2.61749L152.18 0.674988Z" fill="url(#paint4_linear_207_1791)"></path> <path d="M181.598 22.2625C181.598 22.2625 186.8 26.2825 187.835 34.21C188.555 39.7325 187.262 46.65 181.625 52.5075C180.887 53.275 180.075 54.0275 179.212 54.7575C172.675 59.98 166.76 62.6375 161.732 63.135L160.195 63.0325L158.05 66.765H160.355L164.438 64.2375C164.438 64.2375 169.637 63.2925 179.212 56.3775C183.135 53.1825 186.357 49.5475 187.89 44.425C192.79 28.0425 181.598 22.2625 181.598 22.2625Z" fill="url(#paint5_linear_207_1791)"></path> <path d="M140.708 91.0175V93.7325C140.708 93.87 140.79 93.9925 140.92 94.04C141.7 94.3275 144.602 95.2875 149.107 95.4775C152.487 95.62 156.113 95.5125 158.303 95.415C158.525 95.405 158.67 95.1825 158.592 94.9725L157.48 91.975C157.43 91.8425 157.305 91.755 157.165 91.76C154.787 91.84 151.52 91.915 149.372 91.8275C144.802 91.6425 142.095 90.985 141.117 90.7025C140.912 90.64 140.708 90.8 140.708 91.0175Z" fill="url(#paint6_linear_207_1791)"></path> <path d="M140.182 95.0875C140.025 95.1925 139.918 95.36 139.895 95.55L139.07 102.008C139.045 102.198 139.102 102.388 139.232 102.528C139.735 103.06 141.465 104.23 147.172 104.728C153.202 105.255 159 104.608 161.05 104.333C161.455 104.278 161.712 103.868 161.58 103.48L159.377 96.94C159.285 96.6625 159.02 96.48 158.725 96.4975C156.745 96.615 153.485 96.705 148.958 96.5025C144.323 96.295 141.64 95.3725 140.78 95.025C140.582 94.9475 140.362 94.97 140.182 95.0875Z" fill="url(#paint7_linear_207_1791)"></path> <path d="M138.78 19.3275C140.055 18.97 141.443 18.6775 142.893 18.44C144.58 17.935 148.395 16.52 149.805 13.995V13.9975C149.805 13.9975 149.81 13.99 149.815 13.9775C149.845 13.9225 149.875 13.87 149.902 13.8125C149.925 13.7675 149.945 13.72 149.965 13.675C150.302 13.04 151.14 11.68 152.148 11.5825C154.575 11.35 154.718 10.625 154.718 10.625V10.1025C154.718 10.1025 154.578 9.69 152.405 9.69C149.93 9.69 149.652 10.13 149.652 10.13C149.072 12.5175 148.93 15.825 141.155 17.4675C138.782 17.9675 137.643 18.1675 136.988 19.0225C136.835 19.2225 136.63 19.99 136.527 20.49C136.875 20.1125 137.53 19.6775 138.78 19.3275Z" fill="url(#paint8_linear_207_1791)"></path> <path d="M156.72 61.285C155.553 61.395 154.073 61.48 152.265 61.4875C152.238 61.4875 152.212 61.4875 152.185 61.4875C152.157 61.4875 152.132 61.4875 152.105 61.4875C150.297 61.48 148.817 61.3925 147.65 61.285C145.515 61.0875 144.445 60.815 144.445 60.815L144.775 61.735C144.995 62.345 147.26 67.395 147.26 67.395C151.205 68.46 154.46 67.9575 155.533 67.6575L158.35 61.0775C158.35 61.08 157.358 61.225 156.72 61.285Z" fill="url(#paint9_linear_207_1791)"></path> <path d="M149.742 17.78C149.912 17.395 150.17 16.99 150.565 16.5875C152.24 14.8775 152.675 12.065 152.675 12.065C152.675 12.065 151.972 12.0175 151.245 12.88C150.417 13.8625 150.592 14.8625 148.59 16.38C147.742 17.0225 146.91 17.565 146.165 18.0175C147.34 17.905 148.535 17.825 149.742 17.78Z" fill="url(#paint10_linear_207_1791)"></path> <path d="M150.89 17.75C152.645 17.6025 154.932 17.5625 156.617 17.8025C155.575 16.68 154.642 16.1825 154.29 15.7075C153.447 14.565 153.048 13.11 153.048 13.11C153.048 13.11 152.865 15.1075 151.78 16.54C151.447 16.9775 151.142 17.3825 150.89 17.75Z" fill="url(#paint11_linear_207_1791)"></path> <path d="M156.218 15.8625C157.018 16.5875 158.053 17.2275 159.328 17.79C159.69 17.95 159.97 18.1225 160.18 18.295C161.977 18.5525 163.688 18.8925 165.24 19.3275C166.273 19.6175 166.898 19.9625 167.278 20.2875C167.35 19.725 167.25 18.4975 165.093 18.0875C163.485 17.7825 158.598 16.6 157.168 15.0925C154.978 12.785 155.14 11.14 155.14 11.14L154.578 11.6075C154.578 11.61 153.64 13.52 156.218 15.8625Z" fill="url(#paint12_linear_207_1791)"></path> <path d="M149.408 84.405C150.07 82.4475 150.658 78.14 150.818 76.8975H150.635H150.413C150.413 76.8975 150.215 76.8975 150.11 77.0125C150.02 77.1125 149.372 81.3525 147.637 84.2125C147.562 84.3375 147.485 84.4575 147.405 84.575C145.68 86.7325 143.133 88.0275 142.13 88.4475C141.62 88.66 141.505 88.895 141.505 88.895C141.505 88.895 140.828 90.0075 143.44 90.475C143.443 90.475 143.443 90.475 143.445 90.475C143.845 90.5425 144.257 90.5225 144.65 90.4125C145.915 90.0575 147.928 88.7775 149.408 84.405Z" fill="url(#paint13_linear_207_1791)"></path> <path d="M153.697 84.91C153.125 82.385 152.903 78.2575 152.843 76.895H152.828H152.82H151.837H151.83H151.438C151.378 78.2575 151.155 82.385 150.583 84.91C150.115 86.9675 149.493 88.8375 149.053 90.0425C149.53 90.335 150.392 90.5725 151.947 90.5725H151.95C151.953 90.5725 151.955 90.5725 151.955 90.5725C151.983 90.5725 152.155 90.5675 152.33 90.5675C152.503 90.5675 152.675 90.5725 152.705 90.5725C152.708 90.5725 152.708 90.5725 152.71 90.5725H152.712C153.97 90.5725 154.775 90.4175 155.29 90.205C154.845 89.0075 154.185 87.06 153.697 84.91Z" fill="url(#paint14_linear_207_1791)"></path> <path d="M163.15 88.8925C163.15 88.8925 163.032 88.66 162.525 88.445C161.52 88.025 158.975 86.73 157.25 84.5725C157.172 84.455 157.095 84.335 157.018 84.21C155.283 81.3525 154.635 77.11 154.545 77.01C154.44 76.895 154.242 76.895 154.242 76.895H154.02H153.72H153.712H153.46C153.62 78.14 154.21 82.445 154.87 84.4025C157.11 91.03 160.583 90.555 160.82 90.515L160.835 90.5125C160.835 90.5125 160.83 90.5125 160.82 90.515L160.675 90.54C160.85 90.525 161.03 90.5025 161.215 90.47C163.827 90.005 163.15 88.8925 163.15 88.8925Z" fill="url(#paint15_linear_207_1791)"></path> <path d="M154.765 71.625C149.913 71.8475 149.197 71.1725 149.197 71.1725L151.163 69.31C149.508 69.25 148.227 69.02 147.26 68.745L146.72 69.1725L144.738 70.59V73.845C144.738 73.845 146.542 75.5825 151.805 75.625C151.815 75.625 151.827 75.625 151.837 75.625C151.89 75.625 151.938 75.6275 151.99 75.6275C152.058 75.6275 152.117 75.6275 152.182 75.6275C152.247 75.6275 152.308 75.6275 152.375 75.6275C152.428 75.6275 152.475 75.625 152.527 75.625C152.537 75.625 152.55 75.625 152.56 75.625C157.822 75.5825 159.628 73.845 159.628 73.845V70.685C159.41 70.8125 158.133 71.4725 154.765 71.625Z" fill="url(#paint16_linear_207_1791)"></path> <path d="M166.045 21.2525C162.747 20.4 159.39 19.86 156.012 19.63C153.505 19.4575 150.987 19.4575 148.48 19.63C144.97 19.87 141.478 20.445 138.053 21.3575C137.2 21.585 136.598 22.3425 136.585 23.2225C136.585 23.2225 135.872 29.01 139.42 43.98C140.402 48.125 144.038 58.8675 144.038 58.8675C144.038 58.8675 144.257 59.3475 144.26 59.35C144.755 60.3 148.717 60.2925 148.717 60.2925C148.717 60.2925 148.145 58.505 148.137 58.4975C143.2 43.6025 145.158 42.4475 145.585 41.945C146.198 41.225 148.165 40.6975 149.253 42.1875C150.34 43.6775 150.522 41.075 152.602 41.0425C154.395 41.015 154.832 42.0975 155.072 42.4425C155.37 42.8725 155.738 42.57 155.738 42.57L156.232 42.0425C156.927 41.3025 157.305 41.075 158.315 40.96C159.673 40.8075 162.328 40.96 162.328 40.96C162.63 40.96 162.872 40.7275 162.872 40.44C162.872 40.185 162.68 39.975 162.425 39.93C162.445 39.8425 157.38 39.32 153.238 39.32C151.943 39.32 149.728 39.38 147.875 39.4375C146 39.4975 144.343 38.2275 143.908 36.4025C143.625 35.215 143.325 34.14 143.165 33.255C142.79 31.1975 143.713 30.86 144.945 30.715C146.443 30.5375 148.612 30.35 151.265 30.315C152.793 30.295 154.87 30.3025 154.87 30.3025C154.87 30.3025 155.077 29.7125 153.825 29.69C150.675 29.6325 147.16 29.7775 145.655 29.855C144.02 29.94 142.55 28.495 142.29 26.8775C142.102 25.715 141.847 24.395 141.952 23.5025C142.557 24.0275 144.2 24.7175 146.09 24.4175C147.445 24.2 148.54 23.5 148.78 22.585C149.12 23.295 150.122 23.81 151.357 23.98C151.36 23.98 151.36 23.98 151.36 23.98C151.45 23.9925 151.542 24.0025 151.635 24.0125C151.655 24.015 151.675 24.015 151.695 24.0175C151.773 24.025 151.852 24.03 151.932 24.035C151.997 24.0375 152.065 24.04 152.133 24.04C152.168 24.04 152.203 24.0425 152.238 24.0425C152.24 24.0425 152.242 24.0425 152.245 24.0425C152.247 24.0425 152.25 24.0425 152.253 24.0425C152.288 24.0425 152.322 24.04 152.357 24.04C152.425 24.04 152.492 24.0375 152.557 24.035C152.637 24.03 152.715 24.025 152.795 24.0175C152.815 24.015 152.835 24.015 152.855 24.0125C152.947 24.005 153.04 23.9925 153.13 23.98C153.133 23.98 153.133 23.98 153.133 23.98C154.368 23.81 155.37 23.2975 155.71 22.585C155.948 23.5025 157.037 24.25 158.4 24.4175C159.74 24.58 160.97 24.14 161.458 23.335C161.533 24.2375 162.232 25.0275 163.212 25.2475C164.087 25.4425 164.965 25.1375 165.485 24.52C165.43 25.2175 165.575 25.755 165.898 25.845C166.338 25.9675 166.967 25.2175 167.305 24.16C167.337 24.0575 167.39 23.8575 167.45 23.615C167.712 22.5775 167.082 21.52 166.045 21.2525Z" fill="url(#paint17_linear_207_1791)"></path> </g> <defs> <linearGradient id="paint0_linear_207_1791" x1="115.147" y1="44.514" x2="146.222" y2="44.514" gradientUnits="userSpaceOnUse"> <stop stop-color="#F94E4E"></stop> <stop offset="0.4102" stop-color="#F7F9FD"></stop> <stop offset="1" stop-color="#F94E4E"></stop> </linearGradient> <linearGradient id="paint1_linear_207_1791" x1="128.32" y1="32.9107" x2="135.412" y2="32.9107" gradientUnits="userSpaceOnUse"> <stop stop-color="#F94E4E"></stop> <stop offset="0.1558" stop-color="#FA6363"></stop> <stop offset="0.4791" stop-color="#FC9B9B"></stop> <stop offset="0.9388" stop-color="#FFF3F3"></stop> <stop offset="1" stop-color="white"></stop> </linearGradient> <linearGradient id="paint2_linear_207_1791" x1="175.94" y1="32.7073" x2="168.848" y2="32.7073" gradientUnits="userSpaceOnUse"> <stop stop-color="#F94E4E"></stop> <stop offset="0.1558" stop-color="#FA6363"></stop> <stop offset="0.4791" stop-color="#FC9B9B"></stop> <stop offset="0.9388" stop-color="#FFF3F3"></stop> <stop offset="1" stop-color="white"></stop> </linearGradient> <linearGradient id="paint3_linear_207_1791" x1="147.053" y1="5.41701" x2="154.706" y2="5.41701" gradientUnits="userSpaceOnUse"> <stop offset="0.1841" stop-color="#F94E4E"></stop> <stop offset="0.3112" stop-color="#FA6363"></stop> <stop offset="0.575" stop-color="#FC9B9B"></stop> <stop offset="0.9501" stop-color="#FFF3F3"></stop> <stop offset="1" stop-color="white"></stop> </linearGradient> <linearGradient id="paint4_linear_207_1791" x1="152.18" y1="5.02824" x2="157.119" y2="5.02824" gradientUnits="userSpaceOnUse"> <stop stop-color="#F94E4E"></stop> <stop offset="0.1558" stop-color="#FA6363"></stop> <stop offset="0.4791" stop-color="#FC9B9B"></stop> <stop offset="0.9388" stop-color="#FFF3F3"></stop> <stop offset="1" stop-color="white"></stop> </linearGradient> <linearGradient id="paint5_linear_207_1791" x1="189.129" y1="44.5137" x2="158.047" y2="44.5137" gradientUnits="userSpaceOnUse"> <stop stop-color="#F94E4E"></stop> <stop offset="0.4102" stop-color="#F7F9FD"></stop> <stop offset="1" stop-color="#F94E4E"></stop> </linearGradient> <linearGradient id="paint6_linear_207_1791" x1="140.708" y1="93.1166" x2="158.616" y2="93.1166" gradientUnits="userSpaceOnUse"> <stop stop-color="#F94E4E"></stop> <stop offset="0.00476032" stop-color="#F95050"></stop> <stop offset="0.1307" stop-color="#FB7E7E"></stop> <stop offset="0.2612" stop-color="#FCA6A6"></stop> <stop offset="0.3945" stop-color="#FDC6C6"></stop> <stop offset="0.5316" stop-color="#FEDFDF"></stop> <stop offset="0.6741" stop-color="#FFF1F1"></stop> <stop offset="0.8253" stop-color="#FFFCFC"></stop> <stop offset="1" stop-color="white"></stop> </linearGradient> <linearGradient id="paint7_linear_207_1791" x1="139.066" y1="99.9539" x2="161.615" y2="99.9539" gradientUnits="userSpaceOnUse"> <stop stop-color="#F94E4E"></stop> <stop offset="0.00476032" stop-color="#F95050"></stop> <stop offset="0.1307" stop-color="#FB7E7E"></stop> <stop offset="0.2612" stop-color="#FCA6A6"></stop> <stop offset="0.3945" stop-color="#FDC6C6"></stop> <stop offset="0.5316" stop-color="#FEDFDF"></stop> <stop offset="0.6741" stop-color="#FFF1F1"></stop> <stop offset="0.8253" stop-color="#FFFCFC"></stop> <stop offset="1" stop-color="white"></stop> </linearGradient> <linearGradient id="paint8_linear_207_1791" x1="136.53" y1="15.092" x2="154.718" y2="15.092" gradientUnits="userSpaceOnUse"> <stop offset="0.1841" stop-color="#F94E4E"></stop> <stop offset="0.3112" stop-color="#FA6363"></stop> <stop offset="0.575" stop-color="#FC9B9B"></stop> <stop offset="0.9501" stop-color="#FFF3F3"></stop> <stop offset="1" stop-color="white"></stop> </linearGradient> <linearGradient id="paint9_linear_207_1791" x1="143.208" y1="64.4307" x2="159.585" y2="64.4307" gradientUnits="userSpaceOnUse"> <stop stop-color="#F94E4E"></stop> <stop offset="0.1558" stop-color="#FA6363"></stop> <stop offset="0.4791" stop-color="#FC9B9B"></stop> <stop offset="0.9388" stop-color="#FFF3F3"></stop> <stop offset="1" stop-color="white"></stop> </linearGradient> <linearGradient id="paint10_linear_207_1791" x1="146.166" y1="15.0418" x2="152.676" y2="15.0418" gradientUnits="userSpaceOnUse"> <stop stop-color="#F94E4E"></stop> <stop offset="0.1558" stop-color="#FA6363"></stop> <stop offset="0.4791" stop-color="#FC9B9B"></stop> <stop offset="0.9388" stop-color="#FFF3F3"></stop> <stop offset="1" stop-color="white"></stop> </linearGradient> <linearGradient id="paint11_linear_207_1791" x1="150.891" y1="15.4559" x2="156.617" y2="15.4559" gradientUnits="userSpaceOnUse"> <stop stop-color="#F94E4E"></stop> <stop offset="0.00476032" stop-color="#F95050"></stop> <stop offset="0.1307" stop-color="#FB7E7E"></stop> <stop offset="0.2612" stop-color="#FCA6A6"></stop> <stop offset="0.3945" stop-color="#FDC6C6"></stop> <stop offset="0.5316" stop-color="#FEDFDF"></stop> <stop offset="0.6741" stop-color="#FFF1F1"></stop> <stop offset="0.8253" stop-color="#FFFCFC"></stop> <stop offset="1" stop-color="white"></stop> </linearGradient> <linearGradient id="paint12_linear_207_1791" x1="167.295" y1="15.7171" x2="154.411" y2="15.7171" gradientUnits="userSpaceOnUse"> <stop stop-color="#F94E4E"></stop> <stop offset="0.00476032" stop-color="#F95050"></stop> <stop offset="0.1307" stop-color="#FB7E7E"></stop> <stop offset="0.2612" stop-color="#FCA6A6"></stop> <stop offset="0.3945" stop-color="#FDC6C6"></stop> <stop offset="0.5316" stop-color="#FEDFDF"></stop> <stop offset="0.6741" stop-color="#FFF1F1"></stop> <stop offset="0.8253" stop-color="#FFFCFC"></stop> <stop offset="1" stop-color="white"></stop> </linearGradient> <linearGradient id="paint13_linear_207_1791" x1="141.423" y1="83.7046" x2="150.817" y2="83.7046" gradientUnits="userSpaceOnUse"> <stop stop-color="#F94E4E"></stop> <stop offset="0.2434" stop-color="#F95151"></stop> <stop offset="0.3966" stop-color="#F95959"></stop> <stop offset="0.5248" stop-color="#FA6868"></stop> <stop offset="0.6392" stop-color="#FB7D7D"></stop> <stop offset="0.7446" stop-color="#FB9797"></stop> <stop offset="0.8433" stop-color="#FDB8B8"></stop> <stop offset="0.935" stop-color="#FEDFDF"></stop> <stop offset="1" stop-color="white"></stop> </linearGradient> <linearGradient id="paint14_linear_207_1791" x1="149.049" y1="83.7333" x2="155.286" y2="83.7333" gradientUnits="userSpaceOnUse"> <stop offset="0.1801" stop-color="#F94E4E"></stop> <stop offset="0.5362" stop-color="#FDBCBC"></stop> <stop offset="0.7666" stop-color="white"></stop> </linearGradient> <linearGradient id="paint15_linear_207_1791" x1="153.459" y1="83.719" x2="163.23" y2="83.719" gradientUnits="userSpaceOnUse"> <stop offset="0.3027" stop-color="#F94E4E" stop-opacity="0.5"></stop> <stop offset="0.5831" stop-color="#FC9F9F" stop-opacity="0.7125"></stop> <stop offset="0.8421" stop-color="#FEE4E4" stop-opacity="0.9088"></stop> <stop offset="0.9624" stop-color="white"></stop> </linearGradient> <linearGradient id="paint16_linear_207_1791" x1="144.444" y1="72.1876" x2="159.924" y2="72.1876" gradientUnits="userSpaceOnUse"> <stop stop-color="#F94E4E"></stop> <stop offset="0.1558" stop-color="#FA6363"></stop> <stop offset="0.4791" stop-color="#FC9B9B"></stop> <stop offset="0.9388" stop-color="#FFF3F3"></stop> <stop offset="1" stop-color="white"></stop> </linearGradient> <linearGradient id="paint17_linear_207_1791" x1="136.528" y1="39.8954" x2="167.512" y2="39.8954" gradientUnits="userSpaceOnUse"> <stop offset="0.2151" stop-color="#F94E4E"></stop> <stop offset="1" stop-color="white"></stop> </linearGradient> <clipPath id="clip0_207_1791"> <rect width="300" height="105.92" fill="white"></rect> </clipPath> </defs> </svg> 