<?xml version="1.0" standalone="no"?>
<!DOCTYPE svg PUBLIC "-//W3C//DTD SVG 1.1//EN" "http://www.w3.org/Graphics/SVG/1.1/DTD/svg11.dtd" >
<svg xmlns="http://www.w3.org/2000/svg" xmlns:xlink="http://www.w3.org/1999/xlink" version="1.1">
<metadata>
Created by FontForge 20200427 at Tue Apr  3 21:43:37 2018
 By www
Copyright (c) 2017 by . All rights reserved.
</metadata>
<defs>
<font id="ALSSectorBold-Bold" horiz-adv-x="1228" >
  <font-face 
    font-family="ALS Sector Bold"
    font-weight="700"
    font-stretch="normal"
    units-per-em="2048"
    panose-1="0 0 0 0 0 0 0 0 0 0"
    ascent="1638"
    descent="-410"
    x-height="1020"
    cap-height="1294"
    bbox="-162 -397 2234 1712"
    underline-thickness="102"
    underline-position="-612"
    unicode-range="U+000D-25FC"
  />
<missing-glyph horiz-adv-x="622" 
 />
    <glyph glyph-name=".notdef" horiz-adv-x="622" 
 />
    <glyph glyph-name=".null" horiz-adv-x="0" 
 />
    <glyph glyph-name="nonmarkingreturn" horiz-adv-x="682" 
 />
    <glyph glyph-name="NULL" horiz-adv-x="0" 
 />
    <glyph glyph-name="NULL" horiz-adv-x="0" 
 />
    <glyph glyph-name="CR" unicode="&#xd;" horiz-adv-x="622" 
 />
    <glyph glyph-name="space" unicode=" " horiz-adv-x="593" 
 />
    <glyph glyph-name="exclam" unicode="!" horiz-adv-x="505" 
d="M74 137q0 86 52 131t130 45q76 0 127 -45t51 -131q0 -85 -51 -129.5t-127 -44.5q-77 0 -129.5 44.5t-52.5 129.5zM78 1294h352l-72 -833h-211z" />
    <glyph glyph-name="quotedbl" unicode="&#x22;" horiz-adv-x="864" 
d="M90 778v608h248v-608h-248zM502 778v608h250v-608h-250z" />
    <glyph glyph-name="numbersign" unicode="#" horiz-adv-x="1441" 
d="M55 319v203h240l57 283h-200v203h241l60 286h206l-59 -286h305l60 286h206l-59 -286h205v-203h-246l-57 -283h207v-203h-248l-64 -319h-207l64 319h-305l-64 -319h-207l64 319h-199zM502 522h305l57 283h-305z" />
    <glyph glyph-name="dollar" unicode="$" horiz-adv-x="1060" 
d="M51 883q0 174 101 266.5t274 114.5v153h227v-151q156 -16 277 -62v-252q-69 28 -182.5 57t-204.5 29q-46 0 -77.5 -4.5t-62.5 -17.5t-47 -42t-16 -73q0 -24 8.5 -44t28.5 -35t38 -25.5t52.5 -21t56.5 -15.5t64 -15q50 -11 82 -19t80 -24.5t79.5 -33.5t67 -45.5t56 -62
t34.5 -80.5t14 -103q0 -173 -93 -265.5t-255 -115.5v-154h-227v150q-185 16 -338 84v264q91 -44 203.5 -75.5t208.5 -31.5q111 0 165 32t54 108q0 28 -14 50t-33.5 36t-56.5 27t-65 19.5t-77 16.5q-78 15 -119.5 25t-109 37.5t-102.5 62t-63 95.5t-28 141z" />
    <glyph glyph-name="percent" unicode="%" horiz-adv-x="1906" 
d="M51 932q0 168 114 276.5t277 108.5q165 0 279.5 -108.5t114.5 -276.5q0 -167 -114.5 -275t-279.5 -108q-163 0 -277 108t-114 275zM274 932q0 -77 48 -121.5t120 -44.5q73 0 121.5 44.5t48.5 121.5q0 79 -48 123.5t-122 44.5q-72 0 -120 -44.5t-48 -123.5zM430 -35
l930 1424h168l-934 -1424h-164zM1063 348q0 168 114 276.5t277 108.5q165 0 279 -108t114 -277q0 -167 -114.5 -275t-278.5 -108q-163 0 -277 108t-114 275zM1286 348q0 -77 48 -121.5t120 -44.5q73 0 121.5 44.5t48.5 121.5q0 79 -48 123.5t-122 44.5q-72 0 -120 -44.5
t-48 -123.5z" />
    <glyph glyph-name="ampersand" unicode="&#x26;" horiz-adv-x="1767" 
d="M100 453q0 147 92.5 254.5t247.5 164.5q-61 85 -61 175q0 118 95 194t247 76q190 0 307 -45v-236q-160 64 -254 64q-51 0 -90 -17.5t-39 -52.5q0 -55 55 -106h576l-57 -209h-293l749 -715h-348l-162 154q-198 -189 -497 -189q-139 0 -249.5 39.5t-179 108t-104 155
t-35.5 185.5zM393 461q0 -88 44.5 -148.5t111 -86t149.5 -25.5q87 0 170.5 27.5t141.5 76.5l-398 383q-116 -28 -167.5 -84.5t-51.5 -142.5z" />
    <glyph glyph-name="quotesingle" unicode="'" horiz-adv-x="425" 
d="M90 778v608h248v-608h-248z" />
    <glyph glyph-name="parenleft" unicode="(" horiz-adv-x="757" 
d="M102 651q0 372 151 585t423 243v-228q-131 -37 -210 -183t-79 -417t79 -417t210 -183v-227q-272 30 -423 242.5t-151 584.5z" />
    <glyph glyph-name="parenright" unicode=")" horiz-adv-x="759" 
d="M102 51q131 37 210 183t79 417t-79 417t-210 183v228q272 -30 423 -243t151 -585t-151 -584.5t-423 -242.5v227z" />
    <glyph glyph-name="asterisk" unicode="*" horiz-adv-x="907" 
d="M49 930v174l316 -51l-259 190l123 123l187 -260l-49 315h172l-50 -313l189 258l123 -123l-260 -190l315 51v-174l-315 51l260 -190l-123 -123l-189 260l50 -316h-172l49 316l-187 -260l-123 123l259 190z" />
    <glyph glyph-name="plus" unicode="+" horiz-adv-x="1302" 
d="M141 580v245h385v396h246v-396h387v-245h-387v-398h-246v398h-385z" />
    <glyph glyph-name="comma" unicode="," horiz-adv-x="518" 
d="M43 -281l162 572h284l-227 -572h-219z" />
    <glyph glyph-name="hyphen" unicode="-" horiz-adv-x="811" 
d="M96 377v260h633v-260h-633z" />
    <glyph glyph-name="period" unicode="." horiz-adv-x="477" 
d="M66 137q0 86 52 131t130 45q76 0 127 -45t51 -131q0 -85 -51 -129.5t-127 -44.5q-77 0 -129.5 44.5t-52.5 129.5z" />
    <glyph glyph-name="slash" unicode="/" horiz-adv-x="1171" 
d="M139 0l627 1386h289l-627 -1386h-289z" />
    <glyph glyph-name="zero" unicode="0" horiz-adv-x="1355" 
d="M82 641q0 141 40 263.5t114.5 214.5t188.5 145t253 53t253 -53.5t188.5 -146t114.5 -215t40 -263.5t-40 -263.5t-114.5 -214.5t-188.5 -145t-253 -53t-253 53.5t-188.5 146t-114.5 215t-40 263.5zM375 641q0 -90 17.5 -164.5t53 -133t95 -91.5t137.5 -33
q104 0 173.5 57.5t99.5 149.5t30 213q0 90 -17.5 164.5t-53 133t-95 91.5t-137.5 33q-104 0 -173.5 -57.5t-99.5 -149.5t-30 -213z" />
    <glyph glyph-name="one" unicode="1" horiz-adv-x="833" 
d="M43 1047l61 247h484v-1065h243v-229h-763v229h243v818h-268z" />
    <glyph glyph-name="two" unicode="2" horiz-adv-x="1030" 
d="M23 0v102l395 445q117 132 160 198.5t43 143.5q0 85 -59 126.5t-156 41.5q-86 0 -177.5 -33.5t-165.5 -89.5v266q82 57 188 87t210 30q87 0 165.5 -26.5t140 -75.5t98 -125t36.5 -168q0 -86 -29 -161.5t-80.5 -145t-150.5 -177.5l-174 -190h479v-248h-923z" />
    <glyph glyph-name="three" unicode="3" horiz-adv-x="1064" 
d="M43 1053l59 241h828v-170l-316 -336q169 -6 262 -114t93 -264q0 -198 -142.5 -322.5t-351.5 -124.5q-115 0 -226 24.5t-181 80.5v266q183 -121 368 -121q113 0 177.5 57t64.5 150q0 54 -19.5 93t-54.5 60.5t-76 31t-90 9.5q-75 0 -157 -20l-35 113l323 346h-526z" />
    <glyph glyph-name="four" unicode="4" horiz-adv-x="1269" 
d="M76 471l715 823h229v-759h219l-82 -228h-137v-307h-264v307h-625zM395 535h361v413z" />
    <glyph glyph-name="five" unicode="5" horiz-adv-x="1112" 
d="M88 57v258q72 -43 168 -72.5t190 -29.5q128 0 210.5 50t82.5 153q0 64 -21 108.5t-59.5 67.5t-84 33t-103.5 10q-138 0 -281 -47l-57 55l72 651h764l-60 -241h-493l-25 -219q96 22 182 22q76 0 143 -16.5t125 -51.5t99.5 -86t65.5 -124t24 -162q0 -134 -74.5 -238
t-202.5 -159.5t-286 -55.5q-220 0 -379 94z" />
    <glyph glyph-name="six" unicode="6" horiz-adv-x="1286" 
d="M123 573q0 117 25 225.5t77.5 204t127.5 166t183 111.5t236 41q192 0 322 -78v-248q-137 84 -287 84q-174 0 -276 -95.5t-117 -260.5q118 121 336 121q195 0 324.5 -117.5t129.5 -304.5q0 -132 -68 -237.5t-186 -163.5t-262 -58q-267 0 -416 162t-149 448zM422 502
q0 -142 65 -221.5t185 -87.5q107 1 175 63.5t68 159.5q0 102 -72.5 162.5t-170.5 60.5q-67 0 -140.5 -37.5t-109.5 -99.5z" />
    <glyph glyph-name="seven" unicode="7" horiz-adv-x="917" 
d="M-25 1047l62 247h913l-526 -1335l-258 98l391 990h-582z" />
    <glyph glyph-name="eight" unicode="8" horiz-adv-x="1212" 
d="M80 367q0 97 55 179t156 128q-133 98 -133 274q0 168 121 268.5t335 100.5q195 0 315 -106t120 -279q0 -65 -45 -137t-111 -113q112 -50 176 -128.5t64 -205.5q0 -98 -44.5 -173.5t-121 -120.5t-169 -68t-196.5 -23q-233 5 -377.5 111.5t-144.5 292.5zM346 401
q0 -94 68 -152.5t200 -58.5q122 0 177 44t55 110q0 45 -29.5 80.5t-79 58t-98.5 38.5t-103 32t-79 29q-48 -25 -79.5 -76t-31.5 -105zM416 948q0 -40 21.5 -70.5t64 -52.5t86.5 -38t108 -35q10 -3 15 -4q77 71 77 170q0 89 -54 132.5t-128 43.5q-51 0 -91 -12t-69.5 -46.5
t-29.5 -87.5z" />
    <glyph glyph-name="nine" unicode="9" horiz-adv-x="1247" 
d="M80 860q0 201 141.5 329t353.5 128q259 0 404 -161t145 -447q0 -118 -23 -225.5t-72.5 -203t-121.5 -166t-176.5 -111t-230.5 -40.5q-187 0 -314 84v242q128 -84 293 -84q155 0 248 86t113 262q-55 -57 -138.5 -89t-173.5 -32q-88 0 -168.5 29t-143 82t-99.5 135t-37 182
zM352 866q0 -102 73 -162.5t171 -60.5q67 0 140.5 37.5t109.5 99.5q0 142 -65 222t-185 88q-110 -2 -177 -61t-67 -163z" />
    <glyph glyph-name="colon" unicode=":" horiz-adv-x="477" 
d="M66 137q0 86 52 131t130 45q76 0 127 -45t51 -131q0 -85 -51 -129.5t-127 -44.5q-77 0 -129.5 44.5t-52.5 129.5zM66 879q0 86 52 131t130 45q76 0 127 -45t51 -131q0 -85 -51 -129.5t-127 -44.5q-77 0 -129.5 44.5t-52.5 129.5z" />
    <glyph glyph-name="semicolon" unicode=";" horiz-adv-x="477" 
d="M-37 -281l162 572h285l-228 -572h-219zM66 879q0 86 52 131t130 45q76 0 127 -45t51 -131q0 -85 -51 -129.5t-127 -44.5q-77 0 -129.5 44.5t-52.5 129.5z" />
    <glyph glyph-name="less" unicode="&#x3c;" horiz-adv-x="1140" 
d="M162 647v90l911 582v-313l-538 -314l538 -313v-313z" />
    <glyph glyph-name="equal" unicode="=" horiz-adv-x="1222" 
d="M102 326v231h1014v-231h-1014zM102 801v231h1014v-231h-1014z" />
    <glyph glyph-name="greater" unicode="&#x3e;" horiz-adv-x="1142" 
d="M162 66v313l538 313l-538 314v313l911 -582v-90z" />
    <glyph glyph-name="question" unicode="?" horiz-adv-x="841" 
d="M35 991v256q65 33 153 51.5t164 18.5q98 0 180 -24.5t145 -72.5t98.5 -126t35.5 -179q0 -152 -100.5 -257.5t-280.5 -135.5v-133h-252l-26 328h43q337 0 337 176q0 88 -53.5 129t-142.5 41q-74 0 -158.5 -20.5t-142.5 -51.5zM154 129q0 67 47.5 114.5t115.5 47.5
q69 0 116.5 -47t47.5 -115t-47.5 -116t-116.5 -48q-68 0 -115.5 47.5t-47.5 116.5z" />
    <glyph glyph-name="at" unicode="@" horiz-adv-x="1574" 
d="M102 393q0 190 95.5 343.5t257 238t354.5 84.5q275 0 464.5 -163t221.5 -421q17 -127 -12 -262l-789 -172q-122 61 -179.5 153.5t-57.5 198.5q0 138 94 234t256 96q31 0 65 -4.5t84 -22t88 -46.5t65.5 -84t27.5 -128v-123l168 37q0 16 -5 78q-25 199 -159 317.5
t-332 118.5q-102 0 -192.5 -33t-158.5 -93t-107.5 -150t-39.5 -197q0 -131 61.5 -237.5t176 -169t260.5 -62.5q135 0 256 37v-190q-101 -39 -256 -39q-146 0 -277 52t-225 140t-149.5 210.5t-55.5 258.5zM668 389q0 -45 22 -90t58 -72l176 41v172q0 30 -11 51.5t-29 31.5
t-33.5 14t-31.5 4q-73 0 -112 -45t-39 -107z" />
    <glyph glyph-name="A" unicode="A" horiz-adv-x="1329" 
d="M-20 0l638 1294h76l656 -1294h-301l-107 227h-571l-105 -227h-286zM471 444h371l-187 400z" />
    <glyph glyph-name="B" unicode="B" horiz-adv-x="1267" 
d="M156 4v1290q266 11 458 11q262 0 392.5 -85.5t130.5 -236.5q0 -102 -49 -178t-142 -117q240 -66 240 -305q0 -189 -157.5 -289t-428.5 -100q-274 0 -444 10zM432 223q122 -8 178 -8q144 0 215.5 43.5t71.5 134.5q0 160 -274 160h-191v-330zM432 764h182q105 0 168.5 43
t63.5 125q0 74 -64.5 112.5t-181.5 38.5q-70 0 -168 -4v-315z" />
    <glyph glyph-name="C" unicode="C" horiz-adv-x="1257" 
d="M92 637q0 306 195.5 493t515.5 187q191 0 383 -82v-266q-155 82 -361 82q-197 0 -313.5 -110t-116.5 -304q6 -192 123.5 -300t288.5 -108q217 0 389 117v-283q-185 -100 -426 -100q-198 0 -353.5 88.5t-240 242t-84.5 343.5z" />
    <glyph glyph-name="D" unicode="D" horiz-adv-x="1445" 
d="M156 0v1294h497q206 0 368 -82t252.5 -230t90.5 -335q0 -189 -90 -336.5t-252 -229t-369 -81.5h-497zM430 238h186q217 0 339 108.5t122 300.5t-122 300t-339 108h-186v-817z" />
    <glyph glyph-name="E" unicode="E" horiz-adv-x="1163" 
d="M156 0v1294h970v-241h-698v-279h612v-242h-612v-290h707v-242h-979z" />
    <glyph glyph-name="F" unicode="F" horiz-adv-x="1146" 
d="M156 0v1294h974v-241h-698v-318h543v-239h-543v-496h-276z" />
    <glyph glyph-name="G" unicode="G" horiz-adv-x="1409" 
d="M82 637q0 305 197 492.5t516 187.5q229 0 419 -84v-264q-74 39 -176.5 61.5t-206.5 22.5q-211 0 -334.5 -105.5t-123.5 -310.5q2 -113 37 -198t93.5 -134t130 -72.5t154.5 -23.5q148 0 238 33v254h-293v225h533v-651q-93 -52 -235.5 -79.5t-268.5 -27.5q-198 0 -354 88.5
t-241 242t-85 343.5z" />
    <glyph glyph-name="H" unicode="H" horiz-adv-x="1441" 
d="M156 0v1294h276v-520h578v520h276v-1294h-276v524h-578v-524h-276z" />
    <glyph glyph-name="I" unicode="I" horiz-adv-x="587" 
d="M156 0v1294h276v-1294h-276z" />
    <glyph glyph-name="J" unicode="J" horiz-adv-x="942" 
d="M31 47v264q110 -88 256 -88q125 0 185 58t60 188v825h267v-870q0 -124 -36 -214.5t-101 -141t-143.5 -74t-174.5 -23.5q-201 0 -313 76z" />
    <glyph glyph-name="K" unicode="K" horiz-adv-x="1280" 
d="M156 0v1294h276v-538h64l450 538h324l-535 -624l598 -670h-360l-473 545h-68v-545h-276z" />
    <glyph glyph-name="L" unicode="L" horiz-adv-x="1114" 
d="M156 0v1294h276v-1050h631v-244h-907z" />
    <glyph glyph-name="M" unicode="M" horiz-adv-x="1830" 
d="M102 0l232 1294h69l521 -841l524 841h68l233 -1294h-276l-119 672l-430 -684l-439 684l-108 -672h-275z" />
    <glyph glyph-name="N" unicode="N" horiz-adv-x="1449" 
d="M156 0v1294h86l788 -770v770h264v-1294h-92l-782 772v-772h-264z" />
    <glyph glyph-name="O" unicode="O" horiz-adv-x="1538" 
d="M82 641q3 301 193 488.5t495 187.5q307 0 495 -187t191 -489q-3 -301 -191 -489.5t-495 -188.5q-151 0 -279 50t-217 139t-140 215t-52 274zM375 641q0 -192 111 -306t284 -114q174 0 285.5 114t111.5 306t-112 307t-285 115t-284 -115t-111 -307z" />
    <glyph glyph-name="P" unicode="P" horiz-adv-x="1249" 
d="M156 0v1294h510q138 0 241.5 -36t163.5 -100t88.5 -144.5t28.5 -177.5q0 -99 -29.5 -178.5t-80 -132.5t-119 -88t-144 -50.5t-158.5 -15.5q-144 0 -225 18v-389h-276zM432 616q59 -12 186 -12q129 0 205 57t76 181q0 98 -55.5 154.5t-194.5 56.5h-217v-437z" />
    <glyph glyph-name="Q" unicode="Q" horiz-adv-x="1544" 
d="M92 641q3 301 193 488.5t495 187.5q307 0 495 -187t191 -489q-2 -168 -65.5 -307.5t-182 -231.5t-274.5 -118q88 -88 223 -88q83 0 201 47v-234q-41 -20 -99 -31.5t-104 -11.5q-81 0 -155 22.5t-143 69t-124.5 96.5t-126.5 126q-239 47 -381 225.5t-143 435.5zM385 641
q0 -192 111 -306t284 -114q174 0 286 114.5t112 305.5q0 192 -112 307t-286 115q-173 0 -284 -115t-111 -307z" />
    <glyph glyph-name="R" unicode="R" horiz-adv-x="1284" 
d="M156 0v1294h526q239 0 356 -104.5t117 -290.5q0 -254 -199 -362l295 -537h-305l-250 467q-27 -2 -82 -2q-82 0 -184 12v-477h-274zM430 715q116 -21 188 -21q256 0 256 193q0 170 -239 170h-205v-342z" />
    <glyph glyph-name="S" unicode="S" horiz-adv-x="1116" 
d="M61 907q0 110 40 191.5t112 128t162 68.5t200 22q98 0 209 -20t193 -52v-254q-61 27 -180.5 56.5t-223.5 29.5q-41 0 -69.5 -2.5t-59.5 -11t-50 -24t-31.5 -43t-12.5 -66.5q0 -53 39 -87t101 -51.5t137 -32.5t150.5 -39t137.5 -61.5t101 -110t39 -175.5
q0 -88 -25.5 -157.5t-70.5 -116.5t-109 -78t-137 -44.5t-158 -13.5q-256 0 -457 92v273q89 -46 206 -79.5t222 -33.5q123 0 181.5 35t58.5 119q0 41 -24 70t-65 45t-94 28t-111 23.5t-116.5 26t-111.5 41t-94 64t-65 99t-24 141.5z" />
    <glyph glyph-name="T" unicode="T" horiz-adv-x="1085" 
d="M0 1053v241h1085v-241h-409v-1053h-266v1053h-410z" />
    <glyph glyph-name="U" unicode="U" horiz-adv-x="1404" 
d="M143 539v755h277v-743q0 -154 75 -234.5t207 -80.5t207.5 80.5t75.5 234.5v743h277v-755q0 -266 -156.5 -420t-403.5 -154t-403 154t-156 420z" />
    <glyph glyph-name="V" unicode="V" horiz-adv-x="1198" 
d="M-20 1294h307l321 -776l301 776h310l-574 -1294h-94z" />
    <glyph glyph-name="W" unicode="W" horiz-adv-x="1724" 
d="M-31 1294h285l250 -751l360 663l371 -663l254 751h266l-434 -1294h-86l-371 721l-375 -721h-83z" />
    <glyph glyph-name="X" unicode="X" horiz-adv-x="1300" 
d="M-20 0l514 672l-437 622h322l270 -411l289 411h317l-434 -596l500 -698h-320l-342 492l-362 -492h-317z" />
    <glyph glyph-name="Y" unicode="Y" horiz-adv-x="1218" 
d="M-33 1294h316l325 -577l328 577h315l-503 -825v-469h-277v469z" />
    <glyph glyph-name="Z" unicode="Z" horiz-adv-x="1128" 
d="M41 0v63l635 988h-604v243h1007v-63l-635 -987h664v-244h-1067z" />
    <glyph glyph-name="bracketleft" unicode="[" horiz-adv-x="788" 
d="M90 -82v1516h643v-224h-381v-1069h381v-223h-643z" />
    <glyph glyph-name="backslash" unicode="\" horiz-adv-x="1226" 
d="M139 1386h289l627 -1386h-289z" />
    <glyph glyph-name="bracketright" unicode="]" horiz-adv-x="788" 
d="M90 -82v223h381v1069h-381v224h643v-1516h-643z" />
    <glyph glyph-name="a" unicode="a" horiz-adv-x="1171" 
d="M78 315q0 94 35 165t97 112.5t138.5 61.5t167.5 20q153 0 248 -39v37q0 155 -207 155q-215 0 -369 -77v245q186 60 408 60q438 0 438 -418v-637h-203l-26 141q-72 -92 -161.5 -128t-229.5 -36q-155 0 -245.5 99.5t-90.5 238.5zM360 322q0 -60 42.5 -99t115.5 -39
q71 0 139 37t107 103v116q-74 47 -186 47q-111 0 -164.5 -40.5t-53.5 -124.5z" />
    <glyph glyph-name="b" unicode="b" horiz-adv-x="1298" 
d="M156 70v1316h278v-471q119 138 330 138q210 0 333.5 -142.5t123.5 -386.5q0 -114 -32 -207.5t-87.5 -158t-132.5 -108.5t-166.5 -64.5t-190.5 -20.5q-242 0 -456 105zM434 240q84 -37 191 -37q133 0 220 80t87 239q0 76 -20.5 133t-56.5 89t-77.5 47.5t-89.5 15.5
q-153 0 -254 -88v-479z" />
    <glyph glyph-name="c" unicode="c" horiz-adv-x="1017" 
d="M78 504q0 249 152 400t409 151q69 0 153.5 -14.5t141.5 -41.5v-245q-44 28 -120 45.5t-152 17.5q-143 0 -219 -78t-76 -227q0 -143 73 -225t191 -82q195 0 315 71v-245q-66 -33 -153 -49.5t-164 -16.5q-156 0 -280.5 63.5t-197.5 187t-73 288.5z" />
    <glyph glyph-name="d" unicode="d" horiz-adv-x="1269" 
d="M78 510q0 250 140.5 397.5t371.5 147.5q168 0 280 -90v421h277v-1386h-234l-12 129q-138 -149 -350 -149q-113 0 -204 41.5t-149 114t-89 168t-31 206.5zM367 518q0 -136 64 -225.5t181 -89.5q174 0 265 151v394q-111 81 -244 81q-129 0 -197.5 -87.5t-68.5 -223.5z" />
    <glyph glyph-name="e" unicode="e" horiz-adv-x="1204" 
d="M78 514q0 107 29.5 196.5t80.5 152t119.5 106t147 64t163.5 20.5q129 0 226.5 -41.5t153.5 -114.5t83 -161.5t27 -192.5q0 -68 -12 -150h-738q16 -102 106.5 -150t229.5 -48q128 0 328 63v-221q-127 -72 -363 -72q-148 0 -261.5 42.5t-182 118t-103 173.5t-34.5 215z
M348 580h492q0 119 -60 180t-162 61q-117 0 -189 -63.5t-81 -177.5z" />
    <glyph glyph-name="f" unicode="f" horiz-adv-x="788" 
d="M127 0v967q0 110 26 191t65.5 126.5t99.5 73t115 35.5t124 8q99 0 201 -17v-227q-91 25 -162 25q-39 0 -68 -6t-57 -22t-42.5 -49.5t-14.5 -84.5h293v-217h-293v-803h-287z" />
    <glyph glyph-name="g" unicode="g" horiz-adv-x="1302" 
d="M78 514q0 106 29 196t78 152.5t113 106.5t134 65t141 21q98 0 185 -37t145 -111l17 113h235v-858q-1 -116 -31.5 -210t-83 -158.5t-124.5 -108t-154.5 -63t-175.5 -19.5q-230 0 -381 88v248q179 -95 352 -95q324 0 324 236v26q-132 -126 -330 -126q-112 0 -202.5 42
t-149 114.5t-90 169.5t-31.5 208zM362 506q0 -128 64 -215.5t186 -87.5q180 0 269 147v365q-119 110 -260 110q-128 0 -193.5 -84.5t-65.5 -234.5z" />
    <glyph glyph-name="h" unicode="h" horiz-adv-x="1241" 
d="M137 0v1386h281v-505q108 174 327 174q166 0 262.5 -98t96.5 -281v-676h-281v625q0 112 -49 156t-135 44q-71 -3 -129.5 -40.5t-91.5 -104.5v-680h-281z" />
    <glyph glyph-name="i" unicode="i" horiz-adv-x="581" 
d="M127 1276q0 67 48 114.5t116 47.5q69 0 116.5 -47t47.5 -115t-47.5 -116t-116.5 -48q-68 0 -116 47.5t-48 116.5zM150 0v1020h284v-1020h-284z" />
    <glyph glyph-name="j" unicode="j" horiz-adv-x="544" 
d="M-162 -137v-213q81 -47 205 -47q86 0 150 27.5t102.5 71.5t62 111t31.5 135t8 154v918h-286v-1002q0 -96 -34.5 -141t-94.5 -45q-83 0 -144 31zM88 1276q0 67 49 114.5t117 47.5t116 -47.5t48 -114.5q0 -68 -48 -116t-116 -48t-117 48t-49 116z" />
    <glyph glyph-name="k" unicode="k" horiz-adv-x="1114" 
d="M137 0v1386h285v-768h72l311 402h334l-406 -492l420 -528h-344l-334 432h-53v-432h-285z" />
    <glyph glyph-name="l" unicode="l" horiz-adv-x="552" 
d="M137 0v1386h285v-1386h-285z" />
    <glyph glyph-name="m" unicode="m" horiz-adv-x="1830" 
d="M137 0v1020h248v-166q60 107 144 154t198 47q115 0 193.5 -52.5t111.5 -156.5q58 112 140.5 160.5t195.5 48.5q154 0 243 -96t89 -283v-676h-281v625q0 104 -37.5 152t-115.5 48q-142 -6 -211 -145v-680h-271v625q0 104 -37.5 152t-115.5 48q-133 -6 -211 -145v-680h-283
z" />
    <glyph glyph-name="n" unicode="n" horiz-adv-x="1239" 
d="M137 0v1020h250v-168q94 203 361 203q164 0 262 -97.5t98 -279.5v-678h-283v625q0 113 -47.5 157.5t-134.5 44.5q-145 -9 -223 -145v-682h-283z" />
    <glyph glyph-name="o" unicode="o" horiz-adv-x="1267" 
d="M78 504q0 117 38 218t108.5 175t175.5 116t233 42q137 0 245.5 -44.5t175 -120t101.5 -171t35 -203.5q0 -156 -65.5 -280.5t-193 -197.5t-298.5 -73q-136 1 -243.5 45.5t-174.5 119.5t-102 170.5t-35 203.5zM369 520q0 -64 15 -120.5t46 -102t83 -72t120 -26.5
q73 0 127 26.5t83.5 72t43.5 96.5t14 108q0 86 -26.5 156t-88.5 116.5t-153 46.5q-58 0 -104.5 -18t-75.5 -47t-48.5 -69t-27.5 -81t-8 -86z" />
    <glyph glyph-name="p" unicode="p" horiz-adv-x="1298" 
d="M137 -389v1409h244l12 -160q112 195 350 195q119 0 211.5 -41t150 -113t87 -166t29.5 -205q0 -113 -34 -214.5t-96.5 -180t-159.5 -124.5t-216 -46q-182 0 -295 127v-481h-283zM418 291q104 -86 260 -86q65 1 115 26.5t80 69.5t44.5 100.5t14.5 122.5q0 134 -63.5 214.5
t-190.5 80.5q-72 0 -144 -26.5t-116 -67.5v-434z" />
    <glyph glyph-name="q" unicode="q" horiz-adv-x="1296" 
d="M78 514q0 106 29 196t78 152.5t113 106.5t134 65t141 21q94 0 177 -33.5t141 -101.5l24 100h244v-1409h-282v493q-130 -124 -326 -124q-112 0 -202.5 42t-149 114.5t-90 169.5t-31.5 208zM362 506q0 -128 64 -215.5t186 -87.5q175 0 265 145v369q-120 108 -256 108
q-128 0 -193.5 -84.5t-65.5 -234.5z" />
    <glyph glyph-name="r" unicode="r" horiz-adv-x="792" 
d="M137 0v1020h248l18 -176q108 205 377 205q25 0 33 -2v-283q-56 12 -117 12q-95 0 -169.5 -37.5t-106.5 -117.5v-621h-283z" />
    <glyph glyph-name="s" unicode="s" horiz-adv-x="1030" 
d="M88 717q0 162 116.5 250t332.5 88q201 0 358 -80v-227q-45 24 -161.5 47.5t-209.5 23.5q-37 0 -59 -2t-46.5 -10.5t-36 -27.5t-11.5 -50q0 -30 17 -51t53 -35.5t71 -23.5t90 -20q11 -2 16 -3q50 -10 82 -18t73 -21.5t66.5 -28t52.5 -37t42.5 -50t25 -65t9.5 -83.5
q0 -148 -127 -238t-332 -90q-227 0 -406 98v232q78 -37 203 -68.5t223 -31.5q68 0 111 25t43 71q0 30 -25.5 49.5t-67.5 29t-95.5 20t-109.5 20.5t-109.5 33t-95.5 54.5t-67.5 88t-25.5 131.5z" />
    <glyph glyph-name="t" unicode="t" horiz-adv-x="790" 
d="M127 299v915l281 93v-287h313v-217h-313v-455q1 -64 35.5 -91.5t107.5 -27.5q90 0 145 33v-235q-91 -54 -241 -54q-328 0 -328 326z" />
    <glyph glyph-name="u" unicode="u" horiz-adv-x="1222" 
d="M123 344v676h283v-625q0 -112 48.5 -156t135.5 -44q71 3 126 40.5t89 104.5v680h282v-1020h-249v166q-100 -201 -355 -201q-166 0 -263 98t-97 281z" />
    <glyph glyph-name="v" unicode="v" horiz-adv-x="1097" 
d="M10 1020h314l237 -612l234 612h292l-479 -1020h-110z" />
    <glyph glyph-name="w" unicode="w" horiz-adv-x="1650" 
d="M10 1020h289l231 -578l244 578h103l243 -578l232 578h288l-464 -1020h-111l-238 592l-241 -592h-111z" />
    <glyph glyph-name="x" unicode="x" horiz-adv-x="991" 
d="M-20 1020h315l205 -322l202 322h308l-363 -504l365 -516h-305l-205 315l-197 -315h-317l362 510z" />
    <glyph glyph-name="y" unicode="y" horiz-adv-x="1091" 
d="M-6 1020h311l240 -621l229 621h297l-631 -1409h-286l266 493z" />
    <glyph glyph-name="z" unicode="z" horiz-adv-x="909" 
d="M10 0v123l508 661h-479v236h844v-123l-510 -661h534v-236h-897z" />
    <glyph glyph-name="braceleft" unicode="{" horiz-adv-x="663" 
d="M76 555v188q71 0 116.5 31.5t45.5 83.5q0 46 -58.5 189t-64.5 206q-6 64 12.5 113t52 78t83.5 48t100.5 25.5t109.5 6.5h148v-234h-148q-45 0 -65 -21t-7 -63l95 -268q34 -102 -6 -174.5t-138 -114.5q98 -42 138 -114.5t6 -174.5l-95 -268q-13 -42 7 -63t65 -21h148v-233
h-148q-75 0 -136.5 11.5t-117 40t-83.5 84t-21 134.5q6 63 64.5 206t58.5 189q0 52 -45.5 83.5t-116.5 31.5z" />
    <glyph glyph-name="braceright" unicode="}" horiz-adv-x="663" 
d="M76 8h147q45 0 65 21t7 63l-94 268q-34 102 5.5 174.5t137.5 114.5q-98 42 -137.5 114.5t-5.5 174.5l94 268q13 42 -7 63t-65 21h-147v234h147q59 0 109.5 -6.5t100.5 -25.5t84 -48t52.5 -78t12.5 -113q-6 -63 -64.5 -206t-58.5 -189q0 -52 45.5 -83.5t116.5 -31.5v-188
q-71 0 -116.5 -31.5t-45.5 -83.5q0 -46 58.5 -189t64.5 -206q6 -64 -12.5 -113t-52.5 -78t-84 -47.5t-100.5 -25t-109.5 -6.5h-147v233z" />
    <glyph glyph-name="asciitilde" unicode="~" horiz-adv-x="1255" 
d="M23 516q157 241 364 254q57 4 112 -14.5t97.5 -48t81.5 -60t80 -52t78 -22.5q81 0 204 148l146 -148q-138 -230 -359 -243q-57 -4 -112 14t-98 46.5t-82.5 57.5t-81 49.5t-78.5 20.5q-101 0 -213 -156z" />
    <glyph glyph-name="uni00A0" unicode="&#xa0;" horiz-adv-x="593" 
 />
    <glyph glyph-name="sterling" unicode="&#xa3;" horiz-adv-x="1521" 
d="M207 938q0 97 46 171.5t126 119t181 66.5t220 22q288 0 539 -117v-246q-93 46 -255 85.5t-271 39.5q-293 0 -293 -164q0 -34 22.5 -72.5t64 -93t62.5 -90.5h551v-227h-493q-5 -75 -68 -188h680v-244h-1083v98q105 71 167 161t62 175q0 46 -26.5 96t-64.5 96t-76 93.5
t-64.5 104.5t-26.5 114z" />
    <glyph glyph-name="copyright" unicode="&#xa9;" horiz-adv-x="1617" 
d="M63 674q0 156 59 294t159.5 234t237.5 151.5t288 55.5q150 0 285.5 -54t235.5 -148t160 -228.5t62 -288.5q0 -208 -100.5 -377.5t-270.5 -263.5t-372 -94q-200 0 -369 91.5t-270.5 257.5t-104.5 370zM258 674q4 -161 78.5 -285.5t197.5 -190t273 -65.5q152 0 276 67
t198.5 195t74.5 295q-4 161 -78.5 285.5t-197.5 190t-273 65.5q-152 0 -276 -67t-198.5 -195t-74.5 -295zM453 674q0 159 109 269t274 110q91 0 155.5 -30t126.5 -89l-90 -107q-91 82 -194 82q-94 0 -157 -68t-63 -167q0 -97 63 -165.5t157 -68.5q104 0 196 86l98 -102
q-64 -66 -133 -96.5t-166 -30.5q-159 0 -267.5 109t-108.5 268z" />
    <glyph glyph-name="guillemotleft" unicode="&#xab;" horiz-adv-x="1146" 
d="M35 510l364 461l201 -94l-297 -367l297 -369l-201 -94zM508 510l364 461l201 -94l-297 -367l297 -369l-201 -94z" />
    <glyph glyph-name="uni00AD" unicode="&#xad;" horiz-adv-x="811" 
d="M96 377v260h633v-260h-633z" />
    <glyph glyph-name="registered" unicode="&#xae;" horiz-adv-x="866" 
d="M63 1014q0 179 104.5 281t264.5 102q158 0 263 -100t108 -275q0 -177 -105.5 -280t-265.5 -103q-102 0 -184.5 43t-133 129.5t-51.5 202.5zM281 813h106v148h33l94 -148h121l-115 172q37 11 56.5 45t19.5 74q0 69 -42 108t-114 39h-159v-438zM387 1055v102h39
q34 0 47.5 -12.5t13.5 -36.5q0 -53 -47 -53h-53z" />
    <glyph glyph-name="twosuperior" unicode="&#xb2;" horiz-adv-x="808" 
d="M23 518v82l284 264q67 61 99 101t32 79q0 74 -100 74q-73 0 -155 -25.5t-144 -62.5v209q62 35 147.5 56.5t169.5 21.5q148 0 243 -60.5t95 -177.5q0 -78 -44 -139.5t-161 -165.5l-86 -76h322v-180h-702z" />
    <glyph glyph-name="threesuperior" unicode="&#xb3;" horiz-adv-x="854" 
d="M43 1120l53 174h631v-123l-262 -192q16 2 47 2q114 0 180 -66t66 -157q0 -121 -103 -196t-278 -75q-90 0 -163 14t-155 52v192q170 -65 275 -65q162 0 162 96q0 39 -30 63.5t-87 24.5q-79 0 -170 -22l-37 96l234 182h-363z" />
    <glyph glyph-name="paragraph" unicode="&#xb6;" horiz-adv-x="1212" 
d="M37 899q0 97 38.5 187t103 155.5t153.5 105t186 39.5h625v-239h-436v-1147h-189v418q-199 0 -340 141.5t-141 339.5zM834 0v1038h190v-1038h-190z" />
    <glyph glyph-name="onesuperior" unicode="&#xb9;" horiz-adv-x="661" 
d="M43 1112l53 182h396v-606h167v-178h-589v178h172v424h-199z" />
    <glyph glyph-name="guillemotright" unicode="&#xbb;" horiz-adv-x="1146" 
d="M35 141l297 369l-297 367l201 94l364 -461l-364 -463zM508 141l297 369l-297 367l201 94l364 -461l-364 -463z" />
    <glyph glyph-name="florin" unicode="&#x192;" horiz-adv-x="1335" 
d="M-145 -346l86 223q74 -24 143 -24q71 0 117 32t69 123l154 959q17 110 55.5 191t85.5 126.5t111 73t120.5 35.5t125.5 8q99 0 198 -17l-37 -227q-88 25 -157 25q-39 0 -68.5 -6t-60 -22t-51 -49.5t-29.5 -84.5h293l-33 -217h-293l-123 -774q-16 -120 -54 -204.5
t-97.5 -132t-131.5 -68.5t-167 -21q-140 0 -256 51z" />
    <glyph glyph-name="uni0401" unicode="&#x401;" horiz-adv-x="1183" 
d="M156 0v1294h970v-241h-698v-279h612v-242h-612v-290h707v-242h-979zM252 1540q0 71 42.5 108.5t106.5 37.5q62 0 104 -37.5t42 -108.5q0 -68 -42.5 -104.5t-103.5 -36.5q-64 0 -106.5 36t-42.5 105zM723 1540q0 71 42 108.5t105 37.5t104.5 -37.5t41.5 -108.5
q0 -68 -41.5 -104.5t-104.5 -36.5t-105 36.5t-42 104.5z" />
    <glyph glyph-name="uni0403" unicode="&#x403;" horiz-adv-x="1062" 
d="M156 0v1294h897v-245h-623v-1049h-274zM434 1409l187 277h331l-272 -277h-246z" />
    <glyph glyph-name="uni0404" unicode="&#x404;" horiz-adv-x="1212" 
d="M82 668q0 107 25.5 202t80 177.5t134 142t194 93.5t252.5 34q199 0 369 -74v-246q-151 80 -342 80q-67 0 -122 -8t-109.5 -29t-93 -55t-66 -89.5t-35.5 -129.5h624v-236h-620q15 -164 110.5 -244.5t280.5 -80.5q202 0 377 82v-242q-186 -82 -416 -82q-166 0 -291 51
t-201 145.5t-113.5 221.5t-37.5 287z" />
    <glyph glyph-name="uni0406" unicode="&#x406;" horiz-adv-x="587" 
d="M156 0v1294h276v-1294h-276z" />
    <glyph glyph-name="uni0407" unicode="&#x407;" horiz-adv-x="702" 
d="M18 1532q0 59 35.5 102t98.5 43q62 0 97.5 -41t35.5 -98q0 -60 -35 -102.5t-98 -42.5t-98.5 41.5t-35.5 97.5zM213 0v1294h276v-1294h-276zM418 1538q0 57 35.5 98t97.5 41q63 0 98 -42.5t35 -102.5q0 -57 -35.5 -98t-97.5 -41q-63 0 -98 42.5t-35 102.5z" />
    <glyph glyph-name="uni0410" unicode="&#x410;" horiz-adv-x="1329" 
d="M-20 0l638 1294h76l656 -1294h-301l-107 227h-571l-105 -227h-286zM471 444h371l-187 400z" />
    <glyph glyph-name="uni0411" unicode="&#x411;" horiz-adv-x="1251" 
d="M156 0v1294h934v-241h-658v-262q136 16 221 16q86 0 159.5 -10.5t145 -38t121.5 -71t80.5 -115t30.5 -164.5q0 -195 -127 -301.5t-352 -106.5h-555zM432 246h266q105 0 155 47.5t50 124.5q0 172 -258 172q-78 0 -213 -19v-325z" />
    <glyph glyph-name="uni0412" unicode="&#x412;" horiz-adv-x="1267" 
d="M156 4v1290q266 11 458 11q262 0 392.5 -85.5t130.5 -236.5q0 -102 -49 -178t-142 -117q240 -66 240 -305q0 -189 -157.5 -289t-428.5 -100q-274 0 -444 10zM432 223q122 -8 178 -8q144 0 215.5 43.5t71.5 134.5q0 160 -274 160h-191v-330zM432 764h182q105 0 168.5 43
t63.5 125q0 74 -64.5 112.5t-181.5 38.5q-70 0 -168 -4v-315z" />
    <glyph glyph-name="uni0413" unicode="&#x413;" horiz-adv-x="1062" 
d="M156 0v1294h897v-245h-623v-1049h-274z" />
    <glyph glyph-name="uni0414" unicode="&#x414;" horiz-adv-x="1476" 
d="M51 -242v488h121q78 179 112.5 379t34.5 522v147h934v-1048h152v-488h-260v242h-834v-242h-260zM459 246h520v803h-397v-140q0 -370 -123 -663z" />
    <glyph glyph-name="uni0415" unicode="&#x415;" horiz-adv-x="1183" 
d="M156 0v1294h970v-241h-698v-279h612v-242h-612v-290h707v-242h-979z" />
    <glyph glyph-name="uni0416" unicode="&#x416;" horiz-adv-x="1978" 
d="M0 0l557 670l-494 624h318l410 -538h63v538h270v-538h64l409 538h318l-494 -624l557 -670h-354l-432 545h-68v-545h-270v545h-68l-432 -545h-354z" />
    <glyph glyph-name="uni0417" unicode="&#x417;" horiz-adv-x="1163" 
d="M78 76v254q118 -65 223 -94t238 -29q110 0 182 44t72 124q0 79 -62 117t-190 38h-258v230h225q260 0 260 160q0 153 -246 153q-112 0 -233 -27t-178 -59v240q83 42 202 66t248 24q223 0 365.5 -97t142.5 -247q0 -114 -68.5 -190.5t-181.5 -116.5q127 -30 202 -110
t75 -198q0 -173 -150.5 -284t-400.5 -111q-145 0 -255 27.5t-212 85.5z" />
    <glyph glyph-name="uni0418" unicode="&#x418;" horiz-adv-x="1449" 
d="M156 0v1294h264v-770l788 770h86v-1294h-264v772l-782 -772h-92z" />
    <glyph glyph-name="uni0419" unicode="&#x419;" horiz-adv-x="1449" 
d="M156 0v1294h264v-770l788 770h86v-1294h-264v772l-782 -772h-92zM367 1712h229q0 -73 42 -114.5t116 -41.5q75 0 117 41t42 115h230q-1 -165 -109.5 -264.5t-279.5 -99.5q-169 0 -277.5 99.5t-109.5 264.5z" />
    <glyph glyph-name="uni041A" unicode="&#x41a;" horiz-adv-x="1280" 
d="M156 0v1294h276v-538h64l450 538h324l-535 -624l598 -670h-360l-473 545h-68v-545h-276z" />
    <glyph glyph-name="uni041B" unicode="&#x41b;" horiz-adv-x="1376" 
d="M0 -2l18 219q10 -2 37 -2q43 0 74 11t61 41t49.5 87t34.5 145.5t22 219.5t7 307v268h918v-1294h-273v1049h-389v-111q0 -190 -11 -334.5t-34.5 -250.5t-56.5 -177t-81 -113.5t-104 -60.5t-129 -18q-94 0 -143 14z" />
    <glyph glyph-name="uni041C" unicode="&#x41c;" horiz-adv-x="1843" 
d="M102 0l232 1294h69l521 -841l524 841h68l233 -1294h-276l-119 672l-430 -684l-439 684l-108 -672h-275z" />
    <glyph glyph-name="uni041D" unicode="&#x41d;" horiz-adv-x="1441" 
d="M156 0v1294h276v-520h578v520h276v-1294h-276v524h-578v-524h-276z" />
    <glyph glyph-name="uni041E" unicode="&#x41e;" horiz-adv-x="1538" 
d="M82 641q3 301 193 488.5t495 187.5q307 0 495 -187t191 -489q-3 -301 -191 -489.5t-495 -188.5q-151 0 -279 50t-217 139t-140 215t-52 274zM375 641q0 -192 111 -306t284 -114q174 0 285.5 114t111.5 306t-112 307t-285 115t-284 -115t-111 -307z" />
    <glyph glyph-name="uni041F" unicode="&#x41f;" horiz-adv-x="1421" 
d="M156 0v1294h1110v-1294h-277v1044h-557v-1044h-276z" />
    <glyph glyph-name="uni0420" unicode="&#x420;" 
d="M156 0v1294h510q138 0 241.5 -36t163.5 -100t88.5 -144.5t28.5 -177.5q0 -99 -29.5 -178.5t-80 -132.5t-119 -88t-144 -50.5t-158.5 -15.5q-144 0 -225 18v-389h-276zM432 616q59 -12 186 -12q129 0 205 57t76 181q0 98 -55.5 154.5t-194.5 56.5h-217v-437z" />
    <glyph glyph-name="uni0421" unicode="&#x421;" horiz-adv-x="1257" 
d="M92 637q0 306 195.5 493t515.5 187q191 0 383 -82v-266q-155 82 -361 82q-197 0 -313.5 -110t-116.5 -304q6 -192 123.5 -300t288.5 -108q217 0 389 117v-283q-185 -100 -426 -100q-198 0 -353.5 88.5t-240 242t-84.5 343.5z" />
    <glyph glyph-name="uni0422" unicode="&#x422;" horiz-adv-x="1085" 
d="M0 1053v241h1085v-241h-409v-1053h-266v1053h-410z" />
    <glyph glyph-name="uni0423" unicode="&#x423;" horiz-adv-x="1208" 
d="M-20 1294h305l362 -708l314 708h296l-487 -981q-89 -179 -191.5 -256t-238.5 -77q-89 0 -166 24v236q65 -21 113 -21q128 0 211 98z" />
    <glyph glyph-name="uni0424" unicode="&#x424;" horiz-adv-x="1689" 
d="M61 662q0 121 45.5 224.5t128 178t204.5 116.5t268 42v116h276v-116q292 0 468.5 -158t176.5 -406q0 -121 -45 -225.5t-126.5 -181t-204 -120.5t-269.5 -44v-139h-276v139q-147 0 -269 44t-204 121.5t-127.5 182.5t-45.5 226zM344 655q0 -149 99.5 -239t263.5 -90v659
q-164 0 -263.5 -91t-99.5 -239zM983 326q163 0 261.5 90t98.5 239q0 148 -99 239t-261 91v-659z" />
    <glyph glyph-name="uni0425" unicode="&#x425;" horiz-adv-x="1300" 
d="M-20 0l514 672l-437 622h322l270 -411l289 411h317l-434 -596l500 -698h-320l-342 492l-362 -492h-317z" />
    <glyph glyph-name="uni0426" unicode="&#x426;" horiz-adv-x="1497" 
d="M156 0v1294h276v-1048h543v1048h276v-1048h195v-488h-266v242h-1024z" />
    <glyph glyph-name="uni0427" unicode="&#x427;" horiz-adv-x="1277" 
d="M61 850v444h277v-391q0 -80 17 -133t52.5 -81.5t80 -39t110.5 -10.5q146 0 248 45v610h276v-1294h-276v442q-161 -59 -320 -59q-73 0 -137.5 13.5t-125.5 47t-105 85.5t-70.5 134t-26.5 187z" />
    <glyph glyph-name="uni0428" unicode="&#x428;" horiz-adv-x="2084" 
d="M156 0v1294h274v-1048h475v1048h275v-1048h475v1048h274v-1294h-1773z" />
    <glyph glyph-name="uni0429" unicode="&#x429;" horiz-adv-x="2146" 
d="M156 0v1294h274v-1048h475v1048h275v-1048h475v1048h274v-1048h166v-488h-266v242h-1673z" />
    <glyph glyph-name="uni042A" unicode="&#x42a;" horiz-adv-x="1427" 
d="M39 1053v241h577v-444q117 20 244 20q90 0 166 -14t143.5 -46t114.5 -81.5t74.5 -125t27.5 -171.5q0 -90 -31.5 -168t-91.5 -137t-155 -93t-215 -34h-553v1053h-301zM616 246h234q120 0 185 49.5t65 146.5q0 102 -66 148.5t-192 46.5q-69 0 -226 -19v-372z" />
    <glyph glyph-name="uni042B" unicode="&#x42b;" horiz-adv-x="1751" 
d="M156 0v1294h276v-444q117 20 230 20q90 0 166 -14t143.5 -46t114.5 -81.5t74.5 -125t27.5 -171.5q0 -90 -31.5 -168t-92 -137t-155.5 -93t-215 -34h-538zM432 246h219q120 0 185 49.5t65 146.5q0 102 -66 148.5t-192 46.5q-54 0 -211 -19v-372zM1319 0v1294h276v-1294
h-276z" />
    <glyph glyph-name="uni042C" unicode="&#x42c;" horiz-adv-x="1263" 
d="M156 0v1294h276v-444q117 20 244 20q90 0 166 -14t143.5 -46t114.5 -81.5t74.5 -125t27.5 -171.5q0 -90 -31.5 -168t-91.5 -137t-155 -93t-215 -34h-553zM432 246h234q120 0 184.5 49.5t64.5 146.5q0 102 -66 148.5t-192 46.5q-68 0 -225 -19v-372z" />
    <glyph glyph-name="uni042D" unicode="&#x42d;" horiz-adv-x="1212" 
d="M72 35v241q164 -71 366 -71q373 0 402 325h-621v236h625q-45 311 -426 311q-191 0 -342 -80v246q170 74 368 74q138 0 252.5 -34t194 -93.5t134 -142t80 -177.5t25.5 -202q0 -159 -40 -287t-119 -222t-206 -145t-294 -51q-121 0 -211 18t-188 54z" />
    <glyph glyph-name="uni042E" unicode="&#x42e;" horiz-adv-x="1955" 
d="M156 0v1294h276v-520h166q41 246 214.5 394.5t418.5 148.5q184 0 329.5 -85t228.5 -239t85 -352q-1 -148 -50 -274t-133.5 -215t-203.5 -139t-256 -50q-248 0 -423 154.5t-212 406.5h-164v-524h-276zM874 641q0 -192 100 -306t257 -114t257.5 114t100.5 306t-100.5 307
t-257.5 115q-156 0 -256.5 -115t-100.5 -307z" />
    <glyph glyph-name="uni042F" unicode="&#x42f;" horiz-adv-x="1384" 
d="M92 0l281 459q-125 50 -200 147t-79 242q0 217 129.5 331.5t368.5 114.5h604v-1294h-289v420q-123 -19 -215 -19h-33l-241 -401h-326zM383 848q1 -64 28.5 -107.5t77.5 -65t103 -30t121 -8.5q113 0 194 16v402h-276q-248 0 -248 -207z" />
    <glyph glyph-name="uni0430" unicode="&#x430;" horiz-adv-x="1171" 
d="M78 315q0 94 35 165t97 112.5t138.5 61.5t167.5 20q153 0 248 -39v37q0 155 -207 155q-215 0 -369 -77v245q186 60 408 60q438 0 438 -418v-637h-203l-26 141q-72 -92 -161.5 -128t-229.5 -36q-155 0 -245.5 99.5t-90.5 238.5zM360 322q0 -60 42.5 -99t115.5 -39
q71 0 139 37t107 103v116q-74 47 -186 47q-111 0 -164.5 -40.5t-53.5 -124.5z" />
    <glyph glyph-name="uni0431" unicode="&#x431;" horiz-adv-x="1257" 
d="M84 580q0 116 20.5 210t58.5 169t101 135t139.5 105.5t183.5 83t222.5 65t265.5 53.5v-268q-36 -6 -104 -16t-115 -17t-113 -21.5t-112.5 -31.5t-99 -46.5t-87 -65.5t-61.5 -89.5t-37 -118.5q147 188 391 188q197 0 319 -123.5t122 -324.5q0 -137 -62.5 -251
t-181.5 -182.5t-270 -68.5q-145 0 -257 46.5t-182 129.5t-105.5 194t-35.5 245zM365 520q0 -146 75.5 -228.5t200.5 -82.5q110 0 185 66.5t75 166.5q0 106 -68 170t-174 64q-85 0 -167 -44t-127 -112z" />
    <glyph glyph-name="uni0432" unicode="&#x432;" horiz-adv-x="1134" 
d="M137 0v1020q171 14 473 14q73 0 131 -6t115 -23.5t94.5 -46t60.5 -76.5t23 -112q0 -161 -176 -235q114 -34 164.5 -96t50.5 -156q0 -297 -487 -297q-269 0 -449 14zM408 209h229q77 0 117.5 32t40.5 85q0 49 -41 79.5t-123 30.5h-223v-227zM408 602h204q69 0 108.5 32
t39.5 81q0 48 -39.5 79t-122.5 31h-190v-223z" />
    <glyph glyph-name="uni0433" unicode="&#x433;" horiz-adv-x="913" 
d="M137 0v1020h744v-238h-461v-782h-283z" />
    <glyph glyph-name="uni0434" unicode="&#x434;" horiz-adv-x="1366" 
d="M86 223h117q61 128 82.5 309t21.5 410v78h826v-797h151v-465h-240v242h-718v-242h-240v465zM479 223h381v576h-297v-33q0 -335 -84 -543z" />
    <glyph glyph-name="uni0435" unicode="&#x435;" horiz-adv-x="1204" 
d="M78 514q0 107 29.5 196.5t80.5 152t119.5 106t147 64t163.5 20.5q129 0 226.5 -41.5t153.5 -114.5t83 -161.5t27 -192.5q0 -68 -12 -150h-738q16 -102 106.5 -150t229.5 -48q128 0 328 63v-221q-127 -72 -363 -72q-148 0 -261.5 42.5t-182 118t-103 173.5t-34.5 215z
M348 580h492q0 119 -60 180t-162 61q-117 0 -189 -63.5t-81 -177.5z" />
    <glyph glyph-name="uni0436" unicode="&#x436;" horiz-adv-x="1775" 
d="M31 0l409 526l-352 494h322l262 -404h94v404h264v-404h94l262 404h322l-352 -494l409 -526h-354l-283 406h-98v-406h-264v406h-98l-283 -406h-354z" />
    <glyph glyph-name="uni0437" unicode="&#x437;" horiz-adv-x="1040" 
d="M113 29v241q163 -75 346 -75q225 0 225 112q0 109 -170 109h-281v196h279q141 0 141 109q0 104 -196 104q-76 0 -178.5 -18t-157.5 -37v229q53 25 183 40.5t228 15.5q188 0 297 -72.5t109 -210.5q0 -88 -49 -152.5t-135 -89.5q99 -19 154 -84.5t55 -162.5
q0 -67 -24 -121.5t-65 -90.5t-98 -60.5t-120 -35t-134 -10.5q-104 0 -227.5 17t-181.5 47z" />
    <glyph glyph-name="uni0438" unicode="&#x438;" horiz-adv-x="1245" 
d="M137 0v1020h264v-574l603 574h104v-1020h-264v573l-602 -573h-105z" />
    <glyph glyph-name="uni0439" unicode="&#x439;" horiz-adv-x="1245" 
d="M137 0v1020h264v-574l603 574h104v-1020h-264v573l-602 -573h-105zM279 1444h221q0 -71 39.5 -110.5t111.5 -39.5t112 39.5t40 110.5h221q-1 -159 -105.5 -254.5t-267.5 -95.5t-267 95.5t-105 254.5z" />
    <glyph glyph-name="uni043A" unicode="&#x43a;" horiz-adv-x="1173" 
d="M137 0v1020h283v-404h90l285 404h338l-381 -494l417 -526h-348l-303 406h-98v-406h-283z" />
    <glyph glyph-name="uni043B" unicode="&#x43b;" horiz-adv-x="1232" 
d="M31 2l20 217q16 -2 49 -2q34 0 56 8.5t45 36.5t36.5 82t24.5 142t16 220t5 314h813v-1020h-275v791h-286q0 -206 -14 -347.5t-40 -231.5t-72.5 -138.5t-101.5 -66t-137 -17.5q-78 0 -139 12z" />
    <glyph glyph-name="uni043C" unicode="&#x43c;" horiz-adv-x="1605" 
d="M72 -2l202 1024h93l436 -635l438 635h90l203 -1024h-274l-101 496l-356 -517l-365 515l-90 -494h-276z" />
    <glyph glyph-name="uni043D" unicode="&#x43d;" horiz-adv-x="1222" 
d="M137 0v1020h283v-399h383v399h282v-1020h-282v399h-383v-399h-283z" />
    <glyph glyph-name="uni043E" unicode="&#x43e;" horiz-adv-x="1267" 
d="M78 504q0 117 38 218t108.5 175t175.5 116t233 42q137 0 245.5 -44.5t175 -120t101.5 -171t35 -203.5q0 -156 -65.5 -280.5t-193 -197.5t-298.5 -73q-136 1 -243.5 45.5t-174.5 119.5t-102 170.5t-35 203.5zM369 520q0 -64 15 -120.5t46 -102t83 -72t120 -26.5
q73 0 127 26.5t83.5 72t43.5 96.5t14 108q0 86 -26.5 156t-88.5 116.5t-153 46.5q-58 0 -104.5 -18t-75.5 -47t-48.5 -69t-27.5 -81t-8 -86z" />
    <glyph glyph-name="uni043F" unicode="&#x43f;" horiz-adv-x="1208" 
d="M137 0v1020h934v-1020h-283v799h-368v-799h-283z" />
    <glyph glyph-name="uni0440" unicode="&#x440;" horiz-adv-x="1286" 
d="M137 -389v1409h244l12 -160q112 195 350 195q119 0 211.5 -41t150 -113t87 -166t29.5 -205q0 -113 -34 -214.5t-96.5 -180t-159.5 -124.5t-216 -46q-182 0 -295 127v-481h-283zM418 291q104 -86 260 -86q65 1 115 26.5t80 69.5t44.5 100.5t14.5 122.5q0 134 -63.5 214.5
t-190.5 80.5q-72 0 -144 -26.5t-116 -67.5v-434z" />
    <glyph glyph-name="uni0441" unicode="&#x441;" horiz-adv-x="1017" 
d="M78 504q0 249 152 400t409 151q69 0 153.5 -14.5t141.5 -41.5v-245q-44 28 -120 45.5t-152 17.5q-143 0 -219 -78t-76 -227q0 -143 73 -225t191 -82q195 0 315 71v-245q-66 -33 -153 -49.5t-164 -16.5q-156 0 -280.5 63.5t-197.5 187t-73 288.5z" />
    <glyph glyph-name="uni0442" unicode="&#x442;" horiz-adv-x="1007" 
d="M51 791v229h905v-229h-311v-791h-283v791h-311z" />
    <glyph glyph-name="uni0443" unicode="&#x443;" horiz-adv-x="1085" 
d="M18 1020h312l239 -621l230 621h297l-631 -1409h-287l266 493z" />
    <glyph glyph-name="uni0444" unicode="&#x444;" horiz-adv-x="1536" 
d="M72 512q0 226 149.5 374.5t413.5 168.5v331h268v-331q257 -12 409 -166t152 -377q0 -228 -148 -377.5t-413 -169.5v-354h-268v354q-173 6 -302.5 82t-195 197t-65.5 268zM350 512q0 -131 78.5 -222t206.5 -97v632q-129 -7 -207 -95.5t-78 -217.5zM903 193q128 6 206.5 97
t78.5 222q0 129 -78 217.5t-207 95.5v-632z" />
    <glyph glyph-name="uni0445" unicode="&#x445;" horiz-adv-x="1073" 
d="M20 1020h316l205 -322l202 322h308l-363 -504l365 -516h-305l-205 315l-197 -315h-317l362 510z" />
    <glyph glyph-name="uni0446" unicode="&#x446;" horiz-adv-x="1304" 
d="M137 0v1020h283v-799h368v799h283v-799h148v-463h-248v242h-834z" />
    <glyph glyph-name="uni0447" unicode="&#x447;" horiz-adv-x="1148" 
d="M82 618v402h283v-318q0 -98 45.5 -139t132.5 -41q108 0 186 35v463h283v-1020h-283v350q-124 -55 -278 -55q-72 0 -137 19.5t-117.5 58t-83.5 101.5t-31 144z" />
    <glyph glyph-name="uni0448" unicode="&#x448;" horiz-adv-x="1757" 
d="M137 0v1020h283v-799h317v799h283v-799h317v799h283v-1020h-1483z" />
    <glyph glyph-name="uni0449" unicode="&#x449;" horiz-adv-x="1884" 
d="M137 0v1020h283v-799h317v799h283v-799h317v799h283v-799h147v-463h-247v242h-1383z" />
    <glyph glyph-name="uni044A" unicode="&#x44a;" horiz-adv-x="1271" 
d="M14 784v236h572v-356q96 26 202 26q199 0 312.5 -94t113.5 -244q0 -161 -105.5 -256.5t-297.5 -95.5h-508v784h-289zM586 211h178q91 0 133.5 39.5t42.5 101.5q0 66 -49.5 99.5t-140.5 33.5t-164 -20v-254z" />
    <glyph glyph-name="uni044B" unicode="&#x44b;" horiz-adv-x="1544" 
d="M137 0v1020h283v-356q96 26 188 26q199 0 312.5 -94t113.5 -244q0 -161 -105.5 -256.5t-297.5 -95.5h-494zM420 211h164q91 0 133.5 39.5t42.5 101.5q0 66 -50 99.5t-141 33.5q-76 0 -149 -20v-254zM1124 0v1020h283v-1020h-283z" />
    <glyph glyph-name="uni044C" unicode="&#x44c;" horiz-adv-x="1093" 
d="M137 0v1020h283v-356q96 26 203 26q199 0 312.5 -94t113.5 -244q0 -161 -106 -256.5t-298 -95.5h-508zM420 211h178q91 0 133.5 39.5t42.5 101.5q0 66 -49.5 99.5t-140.5 33.5t-164 -20v-254z" />
    <glyph glyph-name="uni044D" unicode="&#x44d;" horiz-adv-x="1052" 
d="M82 41v238q134 -70 280 -70q62 0 116 10.5t101.5 33.5t78 63.5t36.5 95.5h-444v204h442q-10 69 -56 115t-108.5 64t-140.5 18q-157 0 -285 -57v235q134 64 306 64q115 0 216 -33.5t180 -98t125 -170t46 -239.5q0 -136 -45.5 -242.5t-124 -172.5t-179.5 -100t-218 -34
q-192 0 -326 76z" />
    <glyph glyph-name="uni044E" unicode="&#x44e;" horiz-adv-x="1697" 
d="M137 0v1020h283v-399h129q34 195 175.5 314.5t354.5 119.5q130 0 235 -44.5t170.5 -120t100.5 -171.5t35 -203q0 -238 -148.5 -394.5t-392.5 -156.5q-224 3 -362 124.5t-170 309.5h-127v-399h-283zM827 520q0 -64 14.5 -120.5t43.5 -102t79 -72t115 -26.5
q69 0 120.5 26.5t79.5 72t41 96.5t13 108q0 86 -25 156t-84 116.5t-145 46.5q-55 0 -99 -18t-72 -47t-47 -69t-26.5 -81.5t-7.5 -85.5z" />
    <glyph glyph-name="uni044F" unicode="&#x44f;" horiz-adv-x="1153" 
d="M82 651q0 170 107 269.5t305 99.5h522v-1020h-281v297q-59 -10 -127 -10q-35 0 -51 2l-160 -289h-313l201 334q-197 87 -203 317zM360 647q0 -88 66 -129t176 -41q66 0 133 12v322h-192q-83 0 -133 -43t-50 -121z" />
    <glyph glyph-name="uni0451" unicode="&#x451;" horiz-adv-x="1204" 
d="M78 514q0 -117 34.5 -215t103 -173.5t182 -118t261.5 -42.5q236 0 363 72v221q-200 -63 -328 -63q-139 0 -229.5 48t-106.5 150h738q12 82 12 150q0 104 -27 192.5t-83 161.5t-153.5 114.5t-226.5 41.5q-85 0 -163.5 -20.5t-147 -64t-119.5 -106t-80.5 -152t-29.5 -196.5
zM227 1268q0 71 43 108t107 37q62 0 103.5 -37t41.5 -108q0 -68 -42 -105t-103 -37q-64 0 -107 36.5t-43 105.5zM348 580q9 114 81 177.5t189 63.5q102 0 162 -61t60 -180h-492zM698 1268q0 71 42.5 108t105.5 37t104 -37t41 -108q0 -69 -41.5 -105.5t-103.5 -36.5
q-63 0 -105.5 37t-42.5 105z" />
    <glyph glyph-name="uni0453" unicode="&#x453;" horiz-adv-x="913" 
d="M137 0v1020h744v-238h-461v-782h-283zM330 1128l207 277h331l-293 -277h-245z" />
    <glyph glyph-name="uni0454" unicode="&#x454;" horiz-adv-x="1048" 
d="M78 514q0 134 46 239.5t125 170t180 98t216 33.5q171 0 305 -64v-235q-136 59 -291 59q-57 0 -105.5 -10t-91 -31.5t-69.5 -61.5t-33 -96h443v-204h-445q13 -106 100.5 -154.5t217.5 -48.5q158 0 291 74v-238q-134 -80 -338 -80q-116 0 -215 34t-174.5 100t-118.5 172.5
t-43 242.5z" />
    <glyph glyph-name="uni0456" unicode="&#x456;" horiz-adv-x="581" 
d="M127 1276q0 67 48 114.5t116 47.5q69 0 116.5 -47t47.5 -115t-47.5 -116t-116.5 -48q-68 0 -116 47.5t-48 116.5zM150 0v1020h284v-1020h-284z" />
    <glyph glyph-name="uni0457" unicode="&#x457;" horiz-adv-x="694" 
d="M16 1292q0 60 35.5 103t98.5 43q62 0 97.5 -41.5t35.5 -98.5q0 -60 -35 -102.5t-98 -42.5t-98.5 41.5t-35.5 97.5zM205 0v1020h284v-1020h-284zM412 1298q0 57 35.5 98.5t97.5 41.5q63 0 98 -43t35 -103q0 -57 -35.5 -98t-97.5 -41q-63 0 -98 42.5t-35 102.5z" />
    <glyph glyph-name="uni0490" unicode="&#x490;" horiz-adv-x="1062" 
d="M156 0v1294h649v201h248v-446h-623v-1049h-274z" />
    <glyph glyph-name="uni0491" unicode="&#x491;" horiz-adv-x="913" 
d="M137 0v1020h506v172h238v-410h-461v-782h-283z" />
    <glyph glyph-name="uni0E3F" unicode="&#xe3f;" horiz-adv-x="0" 
 />
    <glyph glyph-name="uni2000" unicode="&#x2000;" horiz-adv-x="856" 
 />
    <glyph glyph-name="uni2001" unicode="&#x2001;" horiz-adv-x="1712" 
 />
    <glyph glyph-name="uni2002" unicode="&#x2002;" horiz-adv-x="856" 
 />
    <glyph glyph-name="uni2003" unicode="&#x2003;" horiz-adv-x="1712" 
 />
    <glyph glyph-name="uni2004" unicode="&#x2004;" horiz-adv-x="570" 
 />
    <glyph glyph-name="uni2005" unicode="&#x2005;" horiz-adv-x="428" 
 />
    <glyph glyph-name="uni2006" unicode="&#x2006;" horiz-adv-x="285" 
 />
    <glyph glyph-name="uni2007" unicode="&#x2007;" horiz-adv-x="285" 
 />
    <glyph glyph-name="uni2008" unicode="&#x2008;" horiz-adv-x="214" 
 />
    <glyph glyph-name="uni2009" unicode="&#x2009;" horiz-adv-x="342" 
 />
    <glyph glyph-name="uni200A" unicode="&#x200a;" horiz-adv-x="95" 
 />
    <glyph glyph-name="uni2010" unicode="&#x2010;" horiz-adv-x="811" 
d="M96 377v260h633v-260h-633z" />
    <glyph glyph-name="uni2011" unicode="&#x2011;" horiz-adv-x="811" 
d="M96 377v260h633v-260h-633z" />
    <glyph glyph-name="figuredash" unicode="&#x2012;" horiz-adv-x="811" 
d="M96 377v260h633v-260h-633z" />
    <glyph glyph-name="endash" unicode="&#x2013;" horiz-adv-x="1579" 
d="M197 377v260h1185v-260h-1185z" />
    <glyph glyph-name="emdash" unicode="&#x2014;" horiz-adv-x="1878" 
d="M197 377v260h1484v-260h-1484z" />
    <glyph glyph-name="quoteleft" unicode="&#x2018;" horiz-adv-x="520" 
d="M41 723l227 571h211l-162 -571h-276z" />
    <glyph glyph-name="quoteright" unicode="&#x2019;" horiz-adv-x="520" 
d="M41 723l162 571h276l-227 -571h-211z" />
    <glyph glyph-name="quotedblleft" unicode="&#x201c;" horiz-adv-x="909" 
d="M41 723l227 571h211l-162 -571h-276zM430 723l227 571h211l-161 -571h-277z" />
    <glyph glyph-name="quotedblright" unicode="&#x201d;" horiz-adv-x="909" 
d="M41 723l162 571h276l-227 -571h-211zM430 723l162 571h276l-227 -571h-211z" />
    <glyph glyph-name="quotedblbase" unicode="&#x201e;" horiz-adv-x="909" 
d="M41 -281l162 572h276l-227 -572h-211zM430 -281l162 572h276l-227 -572h-211z" />
    <glyph glyph-name="bullet" unicode="&#x2022;" horiz-adv-x="847" 
d="M123 795q0 125 88.5 213t212.5 88t211.5 -88.5t87.5 -212.5q0 -121 -88 -210t-211 -89q-124 0 -212.5 88.5t-88.5 210.5z" />
    <glyph glyph-name="ellipsis" unicode="&#x2026;" horiz-adv-x="1624" 
d="M66 137q0 86 52 131t130 45q76 0 127 -45t51 -131q0 -85 -51 -129.5t-127 -44.5q-77 0 -129.5 44.5t-52.5 129.5zM639 137q0 86 52 131t130 45q76 0 127 -45t51 -131q0 -85 -51 -129.5t-127 -44.5q-77 0 -129.5 44.5t-52.5 129.5zM1212 137q0 86 52.5 131t130.5 45
q76 0 127 -45t51 -131q0 -85 -51 -129.5t-127 -44.5q-78 0 -130.5 44.5t-52.5 129.5z" />
    <glyph glyph-name="uni202F" unicode="&#x202f;" horiz-adv-x="342" 
 />
    <glyph glyph-name="uni205F" unicode="&#x205f;" horiz-adv-x="428" 
 />
    <glyph glyph-name="zerosuperior" unicode="&#x2070;" horiz-adv-x="1024" 
d="M82 907q0 85 27.5 158.5t79.5 130t135 89t188 32.5q104 0 187.5 -33t135.5 -90.5t79.5 -131t27.5 -157.5q0 -114 -46.5 -205t-145.5 -147.5t-238 -56.5q-104 0 -187.5 33t-135.5 90t-79.5 130.5t-27.5 157.5zM342 907q0 -94 43 -157.5t127 -63.5t127 63t43 156
q0 94 -43 157.5t-127 63.5t-127 -63t-43 -156z" />
    <glyph glyph-name="foursuperior" unicode="&#x2074;" horiz-adv-x="993" 
d="M76 774l524 520h201v-475h162l-70 -162h-92v-147h-240v147h-440zM336 819h225v217z" />
    <glyph glyph-name="fivesuperior" unicode="&#x2075;" horiz-adv-x="886" 
d="M88 553v192q152 -67 289 -67q168 0 168 106q0 46 -35 72.5t-102 26.5q-98 0 -195 -37l-94 57l55 391h594l-55 -174h-363l-22 -102q77 22 157 22q63 0 118 -13.5t101.5 -42.5t73.5 -80.5t27 -119.5q0 -132 -99 -214.5t-282 -82.5q-207 0 -336 66z" />
    <glyph glyph-name="sixsuperior" unicode="&#x2076;" horiz-adv-x="993" 
d="M123 868q0 90 27.5 169t82.5 142.5t147.5 100.5t211.5 37q147 0 256 -53v-181q-114 54 -242 54q-94 0 -160.5 -38t-76.5 -122q35 31 95 48t120 17q151 0 239 -71.5t88 -190.5q0 -124 -106.5 -204t-269.5 -80q-201 0 -306.5 98.5t-105.5 273.5zM389 776q0 -51 34 -81
t97 -31q64 1 98.5 31.5t34.5 80.5q0 52 -38 82.5t-95 30.5q-56 0 -93.5 -30.5t-37.5 -82.5z" />
    <glyph glyph-name="sevensuperior" unicode="&#x2077;" horiz-adv-x="702" 
d="M-25 1112l54 182h706l-389 -817l-237 74l274 561h-408z" />
    <glyph glyph-name="eightsuperior" unicode="&#x2078;" horiz-adv-x="952" 
d="M80 735q0 56 36 107t109 80q-90 63 -90 165q0 104 92.5 167t253.5 63q146 0 239 -62.5t93 -148.5q0 -45 -29 -87.5t-82 -74.5q170 -65 170 -205q0 -61 -34 -108.5t-91.5 -76.5t-127 -43.5t-146.5 -14.5q-173 0 -283 65t-110 174zM322 772q0 -53 44 -81.5t119 -28.5
q52 0 90.5 18.5t38.5 54.5q0 18 -13 32t-40.5 26t-53 20t-70.5 21t-72 22q-43 -40 -43 -84zM373 1085q0 -61 166 -96q39 39 39 82q0 41 -32 62.5t-77 21.5q-40 0 -68 -16t-28 -54z" />
    <glyph glyph-name="ninesuperior" unicode="&#x2079;" horiz-adv-x="991" 
d="M80 1028q0 125 107 207t270 82q200 0 305.5 -99t105.5 -274q0 -204 -114.5 -326t-329.5 -122q-159 0 -274 53v176q120 -51 247 -51q216 0 226 162q-83 -74 -224 -74q-131 0 -225 70.5t-94 195.5zM338 1032q0 -53 38 -83.5t95 -30.5q56 0 93.5 31t37.5 83q0 51 -34 83.5
t-97 33.5q-63 -1 -98 -33.5t-35 -83.5z" />
    <glyph glyph-name="zeroinferior" unicode="&#x2080;" horiz-adv-x="1024" 
d="M82 389q0 85 27.5 158.5t79.5 130t135 89t188 32.5q104 0 187.5 -33t135.5 -90.5t79.5 -131t27.5 -157.5q0 -85 -27.5 -158.5t-79.5 -130t-135 -89t-188 -32.5q-104 0 -187.5 33t-135.5 90.5t-79.5 131t-27.5 157.5zM342 389q0 -94 43 -157.5t127 -63.5t127 63t43 156
q0 94 -43 157.5t-127 63.5t-127 -63t-43 -156z" />
    <glyph glyph-name="oneinferior" unicode="&#x2081;" horiz-adv-x="770" 
d="M33 1047l61 247h484v-1294h-277v1047h-268z" />
    <glyph glyph-name="twoinferior" unicode="&#x2082;" horiz-adv-x="661" 
d="M43 602l53 182h396v-606h167v-178h-589v178h172v424h-199z" />
    <glyph glyph-name="threeinferior" unicode="&#x2083;" horiz-adv-x="808" 
d="M23 0v82l284 264q67 61 99 101t32 79q0 74 -100 74q-73 0 -155 -25.5t-144 -62.5v209q62 35 147.5 56.5t169.5 21.5q148 0 243 -60.5t95 -177.5q0 -78 -44 -139.5t-161 -165.5l-86 -76h322v-180h-702z" />
    <glyph glyph-name="fourinferior" unicode="&#x2084;" horiz-adv-x="854" 
d="M43 610l53 174h631v-122l-262 -193q16 2 47 2q114 0 180 -66t66 -157q0 -121 -103 -196t-278 -75q-90 0 -163 14t-155 52v193q173 -66 275 -66q162 0 162 96q0 39 -30 63.5t-87 24.5q-79 0 -170 -22l-37 96l234 182h-363z" />
    <glyph glyph-name="fiveinferior" unicode="&#x2085;" horiz-adv-x="993" 
d="M76 264l524 520h201v-475h162l-70 -162h-92v-147h-240v147h-440zM336 309h225v217z" />
    <glyph glyph-name="sixinferior" unicode="&#x2086;" horiz-adv-x="886" 
d="M88 43v193q154 -68 289 -68q168 0 168 106q0 46 -35 72.5t-102 26.5q-98 0 -195 -37l-94 57l55 391h594l-55 -174h-363l-22 -102q77 22 157 22q63 0 118 -13.5t101.5 -42.5t73.5 -80.5t27 -119.5q0 -132 -99 -214.5t-282 -82.5q-207 0 -336 66z" />
    <glyph glyph-name="seveninferior" unicode="&#x2087;" horiz-adv-x="993" 
d="M123 350q0 90 27.5 169t82.5 142.5t147.5 100.5t211.5 37q145 0 256 -54v-180q-111 53 -242 53q-94 0 -160.5 -37.5t-76.5 -121.5q35 31 95 48t120 17q151 0 239 -71.5t88 -190.5q0 -124 -106.5 -204.5t-269.5 -80.5q-201 0 -306.5 99t-105.5 274zM389 258
q0 -51 34 -81.5t97 -31.5q63 1 98 32t35 81q0 52 -38 82.5t-95 30.5q-56 0 -93.5 -30.5t-37.5 -82.5z" />
    <glyph glyph-name="eightinferior" unicode="&#x2088;" horiz-adv-x="702" 
d="M-25 602l54 182h706l-389 -817l-237 74l274 561h-408z" />
    <glyph glyph-name="nineinferior" unicode="&#x2089;" horiz-adv-x="952" 
d="M80 217q0 56 36 106.5t109 79.5q-90 63 -90 166q0 104 92.5 167t253.5 63q146 0 239 -62.5t93 -148.5q0 -45 -29 -87.5t-82 -74.5q170 -65 170 -205q0 -80 -59.5 -137t-147.5 -82t-192 -25q-173 0 -283 65.5t-110 174.5zM322 254q0 -53 44 -82t119 -29q52 0 90.5 19
t38.5 55q0 18 -13 32t-40.5 26t-53 20t-70.5 21t-72 22q-43 -40 -43 -84zM373 567q0 -61 166 -96q39 39 39 82q0 41 -32 62.5t-77 21.5q-40 0 -68 -16t-28 -54z" />
    <glyph glyph-name="parenleftinferior" unicode="&#x208d;" horiz-adv-x="991" 
d="M80 510q0 125 107 207t270 82q200 0 305.5 -99t105.5 -274q0 -204 -114.5 -326.5t-329.5 -122.5q-157 0 -274 54v176q120 -51 247 -51q216 0 226 161q-82 -73 -224 -73q-131 0 -225 70.5t-94 195.5zM338 514q0 -53 38 -84t95 -31q56 0 93.5 31.5t37.5 83.5q0 51 -34 83.5
t-97 33.5q-63 -1 -98 -33.5t-35 -83.5z" />
    <glyph glyph-name="uni20B4" unicode="&#x20b4;" horiz-adv-x="1456" 
d="M131 702v152h686q49 23 78 58t29 69q0 58 -65.5 84.5t-164.5 26.5q-24 0 -50 -1.5t-48.5 -3.5t-51 -6.5t-48 -7.5t-49.5 -9.5t-44 -9.5t-44 -10t-38 -9t-36 -9.5t-29 -7.5v231q234 68 508 68q201 0 324.5 -84t123.5 -217q0 -86 -65 -168l127 -2v-144h-295
q-33 -21 -95.5 -58.5t-88.5 -53.5h481v-152h-686q-49 -23 -78 -58t-29 -69q0 -59 67 -90t163 -31q107 0 255.5 25t243.5 49v-231q-234 -68 -569 -68q-200 0 -324 88.5t-124 222.5q0 86 65 168l-127 2v144h295q26 18 56.5 37t69 41t58.5 34h-481z" />
    <glyph glyph-name="uni20BD" unicode="&#x20bd;" horiz-adv-x="1628" 
d="M225 166v199h201v108h-201v217h201v604h510q138 0 240 -31t163 -88t90 -132t29 -169q0 -401 -522 -401h-234v-108h486v-199h-486v-166h-276v166h-201zM702 690h199q105 0 165.5 24t81.5 62t21 98q0 44 -11.5 75t-40.5 55.5t-82.5 36.5t-133.5 12h-199v-363z" />
    <glyph glyph-name="uni2116" unicode="&#x2116;" horiz-adv-x="2381" 
d="M156 0v1294h77l783 -786v786h244v-1294h-82l-779 788v-788h-243zM1444 928q0 112 54 201t144 137.5t197 48.5q165 0 280 -106t115 -273q0 -112 -54 -201t-144 -137.5t-197 -48.5q-165 0 -280 106t-115 273zM1524 197v215h630v-215h-630zM1665 928q0 -79 49.5 -122.5
t124.5 -43.5q74 0 124 48t50 128q0 79 -49.5 122.5t-124.5 43.5q-74 0 -124 -48t-50 -128z" />
    <glyph glyph-name="trademark" unicode="&#x2122;" horiz-adv-x="1492" 
d="M102 1137v157h566v-157h-195v-439h-174v439h-197zM754 698v596h43l293 -258l292 258h43v-596h-161v299l-174 -151l-175 151v-299h-161z" />
    <glyph glyph-name="arrowleft" unicode="&#x2190;" horiz-adv-x="1521" 
d="M55 645l666 664l162 -170l-406 -367h1030v-246h-1032l408 -372l-162 -172z" />
    <glyph glyph-name="arrowup" unicode="&#x2191;" horiz-adv-x="1404" 
d="M35 786l667 672l668 -672l-172 -161l-373 401v-1026h-245v1026l-373 -401z" />
    <glyph glyph-name="arrowright" unicode="&#x2192;" horiz-adv-x="1521" 
d="M14 526v246h1030l-405 367l162 170l665 -664l-665 -663l-162 172l408 372h-1033z" />
    <glyph glyph-name="arrowdown" unicode="&#x2193;" horiz-adv-x="1404" 
d="M35 672l172 162l373 -402v1026h245v-1026l373 402l172 -162l-668 -672z" />
    <glyph glyph-name="infinity" unicode="&#x221e;" horiz-adv-x="1599" 
d="M82 629q0 102 41 188.5t127.5 142.5t202.5 56q110 0 187.5 -45t152.5 -137q85 94 167 139t183 45q108 0 192.5 -53t127 -136.5t42.5 -179.5q0 -189 -101.5 -293t-256.5 -104q-109 0 -191.5 42t-158.5 122q-180 -166 -348 -166q-155 0 -261 101.5t-106 277.5zM313 631
q0 -81 44 -120.5t112 -39.5q102 0 215 133q-55 99 -109 141.5t-114 42.5q-63 0 -105.5 -42.5t-42.5 -114.5zM899 629q65 -83 119.5 -114.5t111.5 -31.5q62 0 102 37.5t40 114.5q0 81 -42 120.5t-110 39.5q-65 0 -115.5 -43.5t-105.5 -122.5z" />
    <glyph glyph-name="approxequal" unicode="&#x2248;" horiz-adv-x="1300" 
d="M-4 358q78 85 183.5 145t209.5 60q58 0 110.5 -16.5t92 -40t77 -47t80 -40t85.5 -16.5q61 0 128 33.5t123 93.5l121 -159q-86 -90 -175.5 -139.5t-196.5 -49.5q-57 0 -108.5 14.5t-91 35.5t-77.5 42t-82.5 35.5t-89.5 14.5q-120 0 -242 -119zM-4 756q78 85 183.5 145
t209.5 60q58 0 110.5 -16.5t92 -40t77 -47t80 -40t85.5 -16.5q61 0 128 33.5t123 93.5l121 -160q-86 -90 -175.5 -139t-196.5 -49q-57 0 -108.5 14.5t-91 35t-77.5 41.5t-82.5 35.5t-89.5 14.5q-120 0 -242 -119z" />
    <glyph glyph-name="uni25FC" unicode="&#x25fc;" horiz-adv-x="1024" 
d="M0 0v1024h1024v-1024h-1024z" />
    <glyph glyph-name="zero.alt" 
d="M18 641q0 141 40 263.5t114.5 214.5t188.5 145t253 53t253 -53.5t188.5 -146t114.5 -215t40 -263.5t-40 -263.5t-114.5 -214.5t-188.5 -145t-253 -53t-253 53.5t-188.5 146t-114.5 215t-40 263.5zM311 641q0 -90 17.5 -164.5t53 -133t95 -91.5t137.5 -33q104 0 174 57.5
t100 149.5t30 213t-30 213.5t-100 150.5t-174 58t-173.5 -57.5t-99.5 -149.5t-30 -213z" />
    <glyph glyph-name="one.alt" 
d="M219 1047l62 247h483v-1065h244v-229h-764v229h243v818h-268z" />
    <glyph glyph-name="two.alt" 
d="M152 0v102l395 445q117 132 160 198.5t43 143.5q0 85 -59 126.5t-156 41.5q-85 0 -176.5 -33.5t-165.5 -89.5v266q83 57 188 87t209 30q87 0 165.5 -26.5t140 -75.5t98 -125t36.5 -168q0 -86 -29 -161.5t-80.5 -145t-150.5 -177.5l-174 -190h479v-248h-923z" />
    <glyph glyph-name="three.alt" 
d="M152 1053l59 241h827v-170l-315 -336q169 -6 261.5 -113.5t92.5 -264.5q0 -198 -142 -322.5t-351 -124.5q-115 0 -226.5 24.5t-181.5 80.5v266q183 -121 369 -121q113 0 177 57t64 150q0 54 -19.5 93t-54.5 60.5t-75.5 31t-89.5 9.5q-76 0 -158 -20l-35 113l324 346h-526
z" />
    <glyph glyph-name="four.alt" 
d="M33 471l715 823h229v-759h219l-82 -228h-137v-307h-264v307h-625zM352 535h361v413z" />
    <glyph glyph-name="five.alt" 
d="M143 57v258q72 -43 168.5 -72.5t190.5 -29.5q128 0 210.5 50t82.5 153q0 64 -21 108.5t-60 67.5t-84.5 33t-103.5 10q-137 0 -280 -47l-58 55l72 651h764l-59 -241h-494l-25 -219q96 22 183 22q95 0 176 -26.5t144.5 -79t99.5 -138.5t36 -196q0 -134 -74.5 -238
t-202.5 -159.5t-286 -55.5q-220 0 -379 94z" />
    <glyph glyph-name="six.alt" 
d="M74 573q0 117 25 225.5t77.5 204t127.5 166t183 111.5t236 41q191 0 321 -78v-248q-137 84 -286 84q-173 0 -273.5 -95.5t-115.5 -260.5q118 121 331 121q195 0 325 -118t130 -304q0 -132 -68 -237.5t-186 -163.5t-262 -58q-267 0 -416 162t-149 448zM377 416
q0 -97 69 -159t177 -64q107 1 175 63.5t68 159.5q0 102 -72.5 162.5t-170.5 60.5q-99 0 -172.5 -60.5t-73.5 -162.5z" />
    <glyph glyph-name="seven.alt" 
d="M127 1047l61 247h914l-527 -1335l-258 98l392 990h-582z" />
    <glyph glyph-name="eight.alt" 
d="M88 367q0 96 53 178t148 129l-6 6q-117 95 -117 268q0 169 122 272t335 103q194 0 314 -108.5t120 -282.5q0 -65 -45 -137t-111 -113q112 -50 176 -128.5t64 -205.5q0 -79 -29.5 -144t-80 -110t-119 -76t-144.5 -45t-158 -14q-233 5 -377.5 113.5t-144.5 294.5zM354 401
q0 -93 68.5 -152.5t200.5 -58.5q121 0 176 43.5t55 108.5q0 32 -14 58t-32.5 43t-58 35.5t-67 28.5t-82.5 28q-63 15 -135 47q-48 -25 -79.5 -76t-31.5 -105zM424 948q0 -40 21.5 -70.5t64 -52.5t86.5 -38t108 -35q10 -3 15 -4q78 72 78 170q0 89 -54.5 132.5t-128.5 43.5
q-51 0 -91 -12t-69.5 -46.5t-29.5 -87.5z" />
    <glyph glyph-name="nine.alt" 
d="M92 860q0 201 142 329t354 128q259 0 404 -161t145 -447q0 -117 -24.5 -225.5t-75.5 -203.5t-124 -165.5t-177 -111t-228 -40.5q-178 0 -309 84v242q128 -84 276 -84q163 0 264.5 99t110.5 255q-52 -62 -134 -94.5t-175 -32.5q-88 0 -168.5 29t-143 82t-100 135
t-37.5 182zM371 864q0 -94 67.5 -155.5t169.5 -61.5t171 62t69 155q0 105 -66.5 165.5t-173.5 60.5q-106 0 -171.5 -60.5t-65.5 -165.5z" />
    </font>
</defs>
</svg>
