<svg width="510" height="77" viewBox="0 0 510 77" fill="none" xmlns="http://www.w3.org/2000/svg">
<g clip-path="url(#clip0_82_13252)">
<path d="M243.849 35.9504V61.8335H259.622V47.2822H275.507C283.8 47.2822 290.876 42.5806 293.607 35.977L243.849 35.9504Z" fill="#006848"/>
<path d="M288.804 17.096C285.61 14.1543 281.427 12.5215 277.085 12.5218H243.137C243.2 13.8207 243.377 15.1114 243.668 16.3788C243.737 16.655 243.801 16.9366 243.881 17.2075L243.976 17.5422C245.39 22.012 248.191 25.9152 251.973 28.6855C255.755 31.4558 260.321 32.9491 265.009 32.9488H294.143C294.677 30.067 294.464 27.0966 293.526 24.3201C292.588 21.5436 290.955 19.0531 288.783 17.0854" fill="url(#paint0_linear_82_13252)"/>
<path d="M215.904 17.7335L204.854 41.6402H203.739V12.5218H188.066V61.8388H201.348C203.062 61.839 204.739 61.3482 206.183 60.4246C207.626 59.501 208.774 58.1831 209.492 56.6271L220.537 32.6938H221.658V61.8388H237.351V12.5218H224.043C222.331 12.5226 220.654 13.0139 219.212 13.9374C217.77 14.861 216.622 16.1783 215.904 17.7335" fill="#006848"/>
<path d="M142.84 19.0032L149.375 41.6615H150.496L157.035 19.0032C157.573 17.1337 158.705 15.49 160.259 14.3207C161.814 13.1513 163.707 12.5199 165.653 12.5218H181.319V61.8388H165.631V32.6991H164.505L155.537 61.8388H144.333L135.365 32.6991H134.244V61.8388H118.556V12.5218H134.223C136.168 12.5208 138.061 13.1525 139.615 14.3217C141.17 15.4909 142.302 17.1341 142.84 19.0032" fill="#006848"/>
<path d="M65.5205 15.8156C66.6361 13.4887 69.9087 7.84672 66.9655 2.99631C66.628 2.43854 66.1801 1.95568 65.6491 1.57739C65.1182 1.1991 64.5156 0.933369 63.8782 0.796538C63.2408 0.659708 62.5822 0.654662 61.9428 0.781713C61.3034 0.908764 60.6967 1.16523 60.16 1.53534C57.8915 3.09193 55.6284 4.66447 53.3121 6.31669C50.7711 5.39755 48.0977 4.89697 45.3963 4.83447C41.9696 4.78135 38.5324 4.78134 35.1111 4.82385C32.4096 4.88541 29.736 5.38602 27.1953 6.30606C24.8737 4.66447 22.6158 3.1185 20.342 1.52471C19.8047 1.15506 19.1975 0.899241 18.5576 0.772982C17.9178 0.646723 17.2589 0.652697 16.6214 0.790537C15.984 0.928377 15.3815 1.19517 14.8509 1.5745C14.3204 1.95383 13.8731 2.43769 13.5366 2.99631C10.5934 7.82547 13.8712 13.4887 14.9816 15.8156C13.7857 17.5884 12.8233 19.5079 12.1181 21.5267C9.13582 30.127 6.60184 38.8762 4.52637 47.7391C15.6678 57.4001 27.6211 66.083 40.2537 73.6912C52.8817 66.0812 64.8313 57.3984 75.9704 47.7391C73.8924 38.8769 71.3585 30.1277 68.3786 21.5267C67.6716 19.5077 66.7074 17.5882 65.5098 15.8156" fill="#050909"/>
<path d="M4.52634 47.7391C6.60431 38.8769 9.13825 30.1278 12.1181 21.5267C12.8233 19.5079 13.7857 17.5884 14.9816 15.8156C13.8712 13.4887 10.5933 7.84673 13.5365 2.99632C13.8677 2.45002 14.3051 1.97563 14.8227 1.60119C15.3403 1.22674 15.9278 0.959825 16.5503 0.816207C17.1728 0.672588 17.8178 0.65518 18.4471 0.765009C19.0765 0.874839 19.6774 1.10968 20.2145 1.45566L20.1879 1.4291C18.2966 0.212507 17.0004 -0.35063 14.6362 0.228445C10.7474 1.19534 6.53982 5.42949 10.094 13.9934C10.3915 14.7106 10.6996 15.4172 11.013 16.1185C8.98894 18.8013 7.76704 21.6011 6.64608 25.0277H8.77112C7.89985 27.684 7.06577 30.3403 6.25826 33.1401H4.13321C2.91131 37.3902 1.73722 41.8474 0.547199 46.7882L0 49.2107L1.8966 50.8045C7.55453 55.6283 12.6546 59.7191 17.8026 63.5548H24.709C17.8716 58.7415 11.6081 53.7902 4.52103 47.7391" fill="#2580C3"/>
<path d="M20.5811 65.5842C25.5112 69.1277 30.59 72.4906 36.3329 76.0394C37.6398 75.2584 38.9467 74.4881 40.2537 73.6912C35.6582 70.8808 31.541 68.2352 27.6521 65.5842H20.5811Z" fill="#2580C3"/>
<path d="M70.5834 57.4718C74.8335 54.0611 78.021 51.3358 80.5073 49.2107C79.8592 46.5172 79.3332 44.3231 78.5417 41.2418H77.6491C76.135 35.3979 74.605 30.1437 72.9156 25.0224H74.9078C74.0897 22.6158 73.1972 19.6248 70.5568 16.1131C71.6193 13.6853 72.6075 11.4752 72.7722 8.80299H71.7096C72.0284 4.15446 69.3615 1.06252 65.7701 0.207188C63.507 -0.324073 62.2054 0.207188 60.3141 1.4344C60.8514 1.08757 61.4527 0.852043 62.0826 0.741752C62.7125 0.63146 63.3582 0.648648 63.9813 0.792299C64.6045 0.935949 65.1925 1.20314 65.7105 1.57807C66.2286 1.95299 66.6661 2.42802 66.9974 2.97506C69.9352 7.80422 66.6627 13.4675 65.547 15.7944C66.7446 17.567 67.7088 19.4865 68.4158 21.5054C71.3838 30.1142 73.9053 38.8704 75.9704 47.7391C64.8289 57.4001 52.8756 66.083 40.243 73.6912C41.5393 74.4881 42.8409 75.285 44.1478 76.05C52.4163 70.9927 60.3893 65.4674 68.028 59.5012H64.7129C65.5789 58.8372 66.4502 58.1571 67.3214 57.4718H70.5834Z" fill="#E6333A"/>
<path d="M32.5982 25.7343C32.5933 25.7055 32.5809 25.6786 32.5623 25.6562C32.5436 25.6338 32.5193 25.6167 32.4919 25.6068L27.5193 24.013C27.4928 24.005 27.4646 24.0041 27.4376 24.0103C27.4106 24.0165 27.3857 24.0296 27.3653 24.0484C27.3449 24.0671 27.3298 24.0909 27.3214 24.1173C27.313 24.1437 27.3116 24.1719 27.3174 24.199L28.3428 29.0281C28.3488 29.0552 28.3618 29.0802 28.3804 29.1006C28.399 29.1211 28.4227 29.1364 28.449 29.145C28.473 29.1567 28.4994 29.1628 28.5261 29.1628C28.5528 29.1628 28.5791 29.1567 28.6031 29.145C30.1969 27.7903 31.4241 26.7862 32.5344 25.9574C32.5582 25.9401 32.5768 25.9166 32.588 25.8894C32.5993 25.8622 32.6028 25.8324 32.5982 25.8034" fill="white"/>
<path d="M52.9774 23.9917L48.0101 25.5855C47.9827 25.5955 47.9584 25.6125 47.9397 25.6349C47.921 25.6573 47.9087 25.6843 47.9038 25.713C47.8984 25.7408 47.901 25.7696 47.9114 25.7959C47.9217 25.8223 47.9394 25.8451 47.9623 25.8618C49.0779 26.7171 50.2998 27.7212 51.8989 29.0494C51.9199 29.0671 51.945 29.0793 51.9719 29.0849C51.9988 29.0904 52.0267 29.0892 52.053 29.0812C52.0793 29.0727 52.103 29.0574 52.1216 29.0369C52.1402 29.0164 52.1532 28.9914 52.1592 28.9644L53.1846 24.1352C53.1908 24.1075 53.1896 24.0787 53.181 24.0516C53.1724 24.0246 53.1567 24.0003 53.1356 23.9814C53.1144 23.9624 53.0886 23.9494 53.0608 23.9438C53.033 23.9382 53.0042 23.94 52.9774 23.9492" fill="white"/>
<path d="M42.9047 25.5696C42.6358 25.1028 42.2488 24.7152 41.7825 24.4456C41.3161 24.176 40.787 24.0341 40.2484 24.0341C39.7097 24.0341 39.1806 24.176 38.7143 24.4456C38.248 24.7152 37.8609 25.1028 37.5921 25.5696C37.2414 26.1752 35.5255 29.1344 32.5716 34.2557C32.084 35.1044 31.8275 36.0661 31.8279 37.0448C31.8279 40.8593 31.8279 44.4825 31.8598 47.1388C31.8863 55.538 48.6423 55.4955 48.6476 47.1016C48.6476 44.525 48.6476 40.923 48.6476 37.0714C48.6488 36.0942 48.3922 35.134 47.9038 34.2876L42.9047 25.5696ZM43.5634 49.1842C43.5516 49.2114 43.5324 49.2348 43.508 49.2516C43.4836 49.2685 43.455 49.2783 43.4253 49.2798C41.3041 49.4601 39.1714 49.4601 37.0502 49.2798C37.0215 49.2773 36.9939 49.2672 36.9706 49.2503C36.9472 49.2335 36.9288 49.2106 36.9174 49.1842C36.0829 47.1926 35.4165 45.1348 34.9251 43.0322C34.9199 43.0033 34.9221 42.9735 34.9314 42.9457C34.9406 42.9178 34.9568 42.8928 34.9783 42.8728C36.598 41.4726 38.3325 40.2108 40.1634 39.1008C40.189 39.0854 40.2184 39.0772 40.2484 39.0772C40.2783 39.0772 40.3077 39.0854 40.3334 39.1008C42.1643 40.2108 43.8987 41.4726 45.5185 42.8728C45.5408 42.8921 45.5575 42.9171 45.5669 42.9452C45.5762 42.9732 45.5779 43.0033 45.5716 43.0322C45.0751 45.1353 44.4033 47.1931 43.5634 49.1842" fill="white"/>
<path d="M99.4415 8.79236H97.6564C97.5097 8.79236 97.3908 8.91129 97.3908 9.05799V65.207C97.3908 65.3537 97.5097 65.4726 97.6564 65.4726H99.4415C99.5882 65.4726 99.7071 65.3537 99.7071 65.207V9.05799C99.7071 8.91129 99.5882 8.79236 99.4415 8.79236Z" fill="#050909"/>
<path d="M400.826 32.4122L407.238 20.9583V32.4122H411.685V12.4846H407.955L401.543 23.9121V12.4846H395.752L394.323 16.5754H397.096V32.4122H400.826Z" fill="#050909"/>
<path d="M333.531 32.9382C337.648 32.9382 341.022 30.5528 341.022 24.9693V20.1242C341.022 14.5459 337.707 12.1552 333.531 12.1552C329.355 12.1552 326.046 14.5406 326.046 20.1242V24.9693C326.046 30.5475 329.355 32.9382 333.531 32.9382ZM330.609 20.7989C330.609 17.4572 331.831 16.5488 333.531 16.5488C335.231 16.5488 336.458 17.4413 336.458 20.7989V24.3211C336.458 27.6628 335.236 28.5712 333.531 28.5712C331.826 28.5712 330.609 27.6787 330.609 24.3211V20.7989Z" fill="#050909"/>
<path d="M373.503 26.563L369.354 25.2561C369.088 27.6681 368.164 28.534 366.644 28.534C364.881 28.534 363.717 27.6415 363.717 24.2839V20.7776C363.717 17.436 364.944 16.5275 366.644 16.5275C367.983 16.5275 368.849 17.2713 369.115 18.8226L373.365 17.8079C372.616 13.8712 370.204 12.1446 366.655 12.1446C362.538 12.1446 359.164 14.53 359.164 20.1135V24.9693C359.164 30.5475 362.474 32.9382 366.655 32.9382C370.374 32.9382 372.855 31.0575 373.514 26.563" fill="#050909"/>
<path d="M310.256 32.4069H314.82V26.8074H316.791C320.611 26.8074 323.92 24.9852 323.92 20.4323V18.8385C323.92 14.9869 322.04 12.4634 317.418 12.4634H308.918L307.483 16.5541H310.256V32.4069ZM314.82 16.57H317.12C318.608 16.57 319.357 17.2819 319.357 18.9554V20.326C319.357 22.2067 318.045 22.8602 316.61 22.8602H314.82V16.57Z" fill="#050909"/>
<path d="M357.815 26.563L353.666 25.2561C353.4 27.6681 352.476 28.534 350.951 28.534C349.193 28.534 348.029 27.6415 348.029 24.2839V20.7776C348.029 17.436 349.251 16.5275 350.951 16.5275C352.295 16.5275 353.161 17.2713 353.427 18.8226L357.677 17.8079C356.928 13.8712 354.489 12.1446 350.962 12.1446C346.85 12.1446 343.476 14.53 343.476 20.1135V24.9693C343.476 30.5475 346.786 32.9382 350.962 32.9382C354.68 32.9382 357.167 31.0575 357.826 26.563" fill="#050909"/>
<path d="M404.189 10.7102C406.962 10.7102 409.767 9.33958 410.564 5.61013L406.845 4.54761C406.431 6.33796 405.591 7.14016 404.221 7.14016C402.85 7.14016 402.016 6.33796 401.596 4.54761L397.877 5.61013C398.653 9.32896 401.458 10.7102 404.252 10.7102" fill="#050909"/>
<path d="M464.779 18.5942V19.8161C464.779 23.1842 466.654 24.5974 467.94 25.2455L464.508 32.4069H469.289L472.185 26.2018H473.885V32.4069H478.417V16.5754H479.729L481.163 12.4846H471.372C467.552 12.4846 464.779 14.4291 464.779 18.5729M473.885 16.5754V22.313H472.334C471.053 22.313 469.353 22.0102 469.353 19.8639V18.7217C469.353 17.0801 470.416 16.5966 472.009 16.5966L473.885 16.5754Z" fill="#050909"/>
<path d="M422.034 32.9382C425.753 32.9382 428.239 31.0628 428.892 26.563L424.748 25.2508C424.478 27.6681 423.553 28.534 422.034 28.534C420.275 28.534 419.112 27.6415 419.112 24.2839V20.7776C419.112 17.436 420.334 16.5275 422.034 16.5275C423.378 16.5275 424.238 17.2713 424.509 18.8226L428.759 17.8132C428.016 13.8712 425.598 12.1446 422.05 12.1446C417.932 12.1446 414.564 14.53 414.564 20.1135V24.9693C414.564 30.5475 417.874 32.9382 422.05 32.9382" fill="#050909"/>
<path d="M435.066 24.3583H436.468L440.171 32.4122H445.298L440.256 21.7339L444.91 12.4846H439.81L436.378 20.4536H435.066V12.4846H430.534V32.4122H435.066V24.3583Z" fill="#050909"/>
<path d="M387.55 32.4122H391.996V12.4846H388.267L381.854 23.9121V12.4846H376.069L374.635 16.5754H377.408V32.4122H381.137L387.55 20.9583V32.4122Z" fill="#050909"/>
<path d="M456.157 12.4846H450.844L449.41 16.5754H451.795L446.461 32.4069H450.934L451.923 28.9166H457.708L458.871 32.4069H463.377L456.157 12.4846ZM452.969 25.1924L454.611 19.5876L456.46 25.1924H452.969Z" fill="#050909"/>
<path d="M307.462 45.6672H310.241V61.5041H314.804V45.6672H319.989V61.5041H324.553V41.5765H308.896L307.462 45.6672Z" fill="#050909"/>
<path d="M336.82 41.5765H328.319L326.885 45.6672H329.664V61.5041H334.227V55.894H336.193C340.012 55.894 343.322 54.0771 343.322 49.5188V47.9251C343.322 44.0787 341.442 41.5499 336.82 41.5499M338.753 49.4073C338.753 51.2879 337.441 51.9414 336.007 51.9414H334.222V45.6885H336.517C338.01 45.6885 338.753 46.4003 338.753 48.0738V49.4073Z" fill="#050909"/>
<path d="M350.207 53.4502H356.083L357.544 49.3913H350.207V45.6619H357.634L359.095 41.5765H345.644V61.5041H358.081L359.542 57.3602H350.207V53.4502Z" fill="#050909"/>
<path d="M370.581 50.7939L365.359 41.5765H361.9V61.5041H366.257V50.6451L369.12 55.5699H371.925L374.789 50.6451V61.5041H379.14V41.5765H375.681L370.581 50.7939Z" fill="#050909"/>
<path d="M389.611 47.2822H387.704V41.5765H383.14V61.5041H390.238C394.86 61.5041 396.74 58.7893 396.74 54.7305V53.567C396.74 49.0035 393.431 47.2769 389.611 47.2769M392.177 54.5233C392.177 56.7015 391.252 57.4187 389.94 57.4187H387.704V51.2136H389.414C390.849 51.2136 392.161 51.782 392.161 53.6574L392.177 54.5233Z" fill="#050909"/>
<path d="M403.928 53.4502H409.804L411.265 49.3913H403.928V45.6619H411.355L412.816 41.5765H399.365V61.5041H411.802L413.263 57.3602H403.928V53.4502Z" fill="#050909"/>
<path d="M423.766 41.5765H415.266L413.852 45.6885H416.626V61.5253H421.189V55.894H423.16C426.98 55.894 430.29 54.0771 430.29 49.5188V47.9251C430.29 44.0787 428.409 41.5499 423.787 41.5499M425.705 49.4073C425.705 51.2879 424.393 51.9414 422.958 51.9414H421.168V45.6885H423.468C424.956 45.6885 425.705 46.4003 425.705 48.0738V49.4073Z" fill="#050909"/>
<path d="M431.729 53.6308H440.113L441.722 49.0035H433.339L431.729 53.6308Z" fill="#050909"/>
<path d="M443.454 45.6884H446.259V51.5323C446.259 54.7199 446.047 57.4081 443.693 57.4081H442.44L443.869 61.4935H445.691C449.357 61.4935 450.584 57.4665 450.584 51.3995V45.6884H454.223V61.5253H458.786V41.5765H444.889L443.454 45.6884Z" fill="#050909"/>
<path d="M468.301 53.0039V41.5765H462.516L461.082 45.6619H463.86V61.5041H467.584L474.002 50.0501V61.5041H478.443V41.5765H474.714L468.301 53.0039Z" fill="#050909"/>
<path d="M495.358 41.5765H483.007V61.5041H487.57V45.6619H493.866L495.358 41.5765Z" fill="#050909"/>
<path d="M502.785 41.5765H497.473L496.044 45.6884H498.429L493.09 61.5253H497.563L498.551 58.0349H504.337L505.5 61.5253H510.011L502.785 41.5765ZM499.624 54.2842L501.261 48.6794L503.104 54.2842H499.624Z" fill="#050909"/>
</g>
<defs>
<linearGradient id="paint0_linear_82_13252" x1="243.137" y1="22.7433" x2="294.451" y2="22.7433" gradientUnits="userSpaceOnUse">
<stop stop-color="#02AFFF"/>
<stop offset="1" stop-color="#1F5BD7"/>
</linearGradient>
<clipPath id="clip0_82_13252">
<rect width="510" height="76.05" fill="white"/>
</clipPath>
</defs>
</svg>
