<svg width="326" height="100" viewBox="0 0 326 100" fill="none" xmlns="http://www.w3.org/2000/svg">
<g clip-path="url(#clip0)">
<path d="M60.0568 56.6098C59.3421 59.5444 58.6275 61.7618 57.4248 64.6703C57.3944 64.7442 57.3247 64.792 57.2462 64.8008C54.2222 65.0355 51.8649 65.0355 48.8366 64.8008C48.7581 64.792 48.6928 64.7442 48.658 64.6703C47.4553 61.7618 46.7451 59.5444 46.0304 56.6098C46.0087 56.5359 46.0392 56.4489 46.1002 56.401C48.3921 54.4533 50.2615 53.0794 52.9325 51.4447C52.9978 51.4012 53.085 51.4012 53.1546 51.4447C55.8214 53.0794 57.6907 54.4533 59.987 56.401C60.048 56.4489 60.0742 56.5359 60.0568 56.6098Z" fill="#0D0803"/>
<path d="M105.626 62.7752C105.195 60.9839 104.489 58.0406 103.508 54.2407H102.332C100.336 46.5453 98.3188 39.6499 96.0966 32.911H98.7372C97.6653 29.7415 96.4845 25.8112 93.0029 21.1941C94.4408 18.0029 95.7088 15.0943 95.9223 11.5813H94.515C95.0248 4.06859 89.5345 0.00346973 84.5584 0.00346973C82.3754 0.00346973 80.9026 1.0295 79.4952 1.88169C78.4887 2.52076 71.6999 7.26842 70.2533 8.29017C66.9896 7.11626 63.5038 6.42498 59.8219 6.34671C57.5517 6.29888 55.2989 6.27719 53.0461 6.27719C50.7935 6.27719 48.5363 6.29888 46.2706 6.34671C42.5929 6.42498 39.1158 7.11189 35.8521 8.28579C32.7977 6.12932 29.826 4.06422 26.8369 2.02082C26.6626 1.90346 26.4796 1.79039 26.2966 1.69035C23.961 0.220866 22.2442 -0.43124 19.29 0.303503C14.1658 1.57736 8.61886 7.14232 13.3073 18.4028C13.6995 19.3419 14.1091 20.2723 14.5231 21.1941C12.4969 23.8765 10.4925 27.4242 8.71904 32.911H11.5775C10.4315 36.3935 9.3378 39.9195 8.27022 43.5759H5.50772C2.5752 53.8972 0.762576 61.5491 0 64.7056C16.7235 78.9224 28.7846 88.1961 47.8785 99.987C48.0309 99.9 52.8501 97.0175 53.0461 96.9044C53.0461 96.9044 57.5517 99.6217 58.1923 100C69.9395 92.7437 79.5693 86.1136 89.6521 78.2355H85.2904C86.4321 77.366 87.578 76.4791 88.7284 75.5704H93.0247C94.772 74.1748 96.5367 72.7357 98.3363 71.2444C100.912 69.1141 102.633 67.6533 106.097 64.7056C105.944 64.0621 105.783 63.4187 105.626 62.7752ZM63.2728 33.6719L69.8219 31.5502C69.8917 31.5284 69.9701 31.5415 70.0267 31.5937C70.0834 31.6459 70.1052 31.7198 70.0921 31.7937L68.7413 38.1413C68.7238 38.2152 68.6716 38.2717 68.6019 38.2978C68.5322 38.3195 68.4537 38.3065 68.397 38.2586C66.2924 36.4805 64.6803 35.1631 63.2119 34.0371C63.1509 33.9936 63.1204 33.9153 63.1335 33.8371C63.1421 33.7632 63.1988 33.698 63.2728 33.6719ZM36.0656 31.5937C36.1223 31.5415 36.2008 31.5284 36.2705 31.5502L42.8196 33.6719C42.8936 33.698 42.9459 33.7632 42.9634 33.8371C42.9721 33.9153 42.9416 33.9936 42.8806 34.0371C41.4121 35.1631 39.7999 36.4805 37.6953 38.2586C37.6387 38.3065 37.5603 38.3195 37.4905 38.2978C37.4209 38.2717 37.3685 38.2152 37.3511 38.1413L36.0003 31.7937C35.9829 31.7198 36.009 31.6459 36.0656 31.5937ZM47.909 96.5523C42.6322 93.2698 37.3728 89.8395 32.2095 86.2353H36.4405C35.1463 85.3527 33.8652 84.4658 32.5973 83.5701H28.4404C19.2856 76.9834 11.6602 70.7662 3.28116 63.6447C4.57091 58.3058 5.95216 52.8972 7.73429 46.5105H10.2049C11.8041 40.8803 13.4947 35.4718 15.3858 29.9807H12.9544C13.9609 27.4286 15.2769 25.0678 16.8673 22.9592L17.9131 21.5766L17.2028 19.9941C16.754 18.9897 16.3662 18.1028 16.0219 17.2768C14.2486 13.0161 14.0002 9.39009 15.3074 6.8032C15.8651 5.69461 16.6712 4.812 17.7649 4.11206C14.8411 9.10754 17.29 14.003 21.0852 21.3549C21.1636 21.5027 21.242 21.6549 21.3205 21.8114L21.2987 21.8419C16.3662 29.1329 10.1352 53.5538 8.05234 62.097C23.0765 74.8226 35.2073 83.7136 52.0092 94.0784C51.081 94.6784 52.0571 94.0741 47.909 96.5523ZM41.9873 61.9535C41.9742 58.5145 41.9612 53.732 41.948 48.7105C41.9437 47.4236 42.2836 46.1584 42.9285 45.0453C46.8239 38.3109 49.0767 34.4197 49.5386 33.6241C50.2619 32.3719 51.5996 31.6067 53.0418 31.6067C54.4885 31.6067 55.8219 32.3719 56.5451 33.6241L62.6716 44.2106L63.1596 45.0627C63.8045 46.1714 64.1399 47.4322 64.1399 48.7191C64.1313 53.7842 64.1225 58.5232 64.1138 61.9143C64.1052 72.9487 42.0266 73.0009 41.9873 61.9535ZM91.9877 72.64H88.1402C84.3842 75.6139 80.6804 78.4225 76.8764 81.1702H80.9418C73.8437 86.4179 66.5495 91.3438 58.166 96.5609C57.2685 96.0219 54.9591 94.6436 54.0789 94.0784C70.5713 83.9136 82.7632 75.0356 98.04 62.097C96.0575 53.9711 89.87 29.9329 85.4081 22.7853C88.8635 15.9247 91.6957 9.77268 88.3319 4.08591C88.3449 4.09465 88.3537 4.09903 88.3667 4.10331C92.4104 6.76411 92.3754 11.6205 91.3733 14.516H92.4582C91.8701 16.655 90.9201 18.6637 89.6129 21.5766C91.138 23.5983 92.9376 25.8156 94.5846 29.9807H92.0355C94.7764 38.2891 96.4583 43.3063 100.057 57.1754H101.225C101.757 59.2927 102.262 61.3448 102.811 63.6447C100.288 65.7925 96.6544 68.8837 91.9877 72.64Z" fill="#0D0803"/>
<path d="M102.811 63.6448C100.289 65.7925 96.6546 68.8837 91.9879 72.6401H88.1404C84.3844 75.6139 80.6806 78.4225 76.8766 81.1702H80.942C73.8439 86.4179 66.5497 91.3438 58.1662 96.5609C57.2687 96.0219 54.9593 94.6436 54.0791 94.0785C70.5715 83.9136 82.7634 75.0356 98.0402 62.097C96.0576 53.9711 89.8702 29.9329 85.4083 22.7853C88.8637 15.9247 91.6959 9.77271 88.332 4.08594C88.3451 4.09468 88.3539 4.09905 88.3669 4.10334C92.4106 6.76413 92.3756 11.6205 91.3735 14.516H92.4584C91.8703 16.6551 90.9203 18.6638 89.6131 21.5767C91.1382 23.5983 92.9377 25.8156 94.5848 29.9807H92.0357C94.7766 38.2891 96.4585 43.3064 100.058 57.1754H101.225C101.757 59.2927 102.262 61.3449 102.811 63.6448Z" fill="white"/>
<path d="M70.0925 31.7936L68.7417 38.1412C68.7242 38.2151 68.672 38.2716 68.6023 38.2977C68.5325 38.3194 68.4541 38.3064 68.3974 38.2586C66.2928 36.4804 64.6806 35.1631 63.2123 34.037C63.1513 33.9935 63.1208 33.9153 63.1338 33.837C63.1425 33.7631 63.1991 33.6979 63.2732 33.6718L69.8223 31.5501C69.8921 31.5284 69.9705 31.5414 70.0271 31.5936C70.0838 31.6458 70.1056 31.7197 70.0925 31.7936Z" fill="white"/>
<path d="M63.1598 45.0625L62.6718 44.2104L56.5453 33.6238C55.8221 32.3716 54.4887 31.6064 53.0421 31.6064C51.5998 31.6064 50.2621 32.3716 49.5388 33.6238C49.077 34.4194 46.8241 38.3106 42.9287 45.0451C42.2839 46.1581 41.944 47.4233 41.9483 48.7102C41.9614 53.7318 41.9745 58.5142 41.9875 61.9532C42.0268 73.0007 64.1054 72.9484 64.1141 61.914C64.1227 58.5229 64.1315 53.784 64.1402 48.7189C64.1402 47.432 63.8047 46.1711 63.1598 45.0625ZM57.4255 64.6705C57.395 64.7444 57.3253 64.7922 57.2469 64.801C54.2229 65.0357 51.8656 65.0357 48.8372 64.801C48.7588 64.7922 48.6934 64.7444 48.6586 64.6705C47.456 61.762 46.7457 59.5446 46.0311 56.6099C46.0094 56.5361 46.0399 56.449 46.1009 56.4012C48.3928 54.4535 50.2621 53.0796 52.9331 51.4449C52.9985 51.4014 53.0856 51.4014 53.1553 51.4449C55.8221 53.0796 57.6913 54.4535 59.9877 56.4012C60.0487 56.449 60.0749 56.5361 60.0574 56.6099C59.3428 59.5446 58.6282 61.762 57.4255 64.6705Z" fill="white"/>
<path d="M42.9635 33.837C42.9722 33.9153 42.9417 33.9935 42.8807 34.037C41.4122 35.1631 39.8 36.4804 37.6954 38.2586C37.6389 38.3064 37.5604 38.3194 37.4907 38.2977C37.421 38.2716 37.3687 38.2151 37.3512 38.1412L36.0005 31.7936C35.983 31.7197 36.0091 31.6458 36.0658 31.5936C36.1225 31.5414 36.2009 31.5284 36.2706 31.5501L42.8197 33.6718C42.8937 33.6979 42.9461 33.7631 42.9635 33.837Z" fill="white"/>
<path d="M52.0092 94.0787C51.0811 94.6787 52.0572 94.0743 47.9091 96.5525C42.6323 93.27 37.3729 89.8397 32.2095 86.2355H36.4406C35.1464 85.3529 33.8653 84.466 32.5974 83.5704H28.4405C19.2857 76.9837 11.6603 70.7664 3.28125 63.645C4.571 58.306 5.95225 52.8975 7.73438 46.5108H10.205C11.8041 40.8805 13.4948 35.472 15.3859 29.9809H12.9545C13.961 27.4288 15.277 25.0681 16.8674 22.9594L17.9132 21.5769L17.2028 19.9943C16.7541 18.99 16.3663 18.1031 16.022 17.277C14.2487 13.0163 14.0003 9.39034 15.3075 6.80345C15.8652 5.69486 16.6713 4.81224 17.765 4.1123C14.8412 9.10779 17.29 14.0032 21.0852 21.3551C21.1637 21.503 21.2421 21.6552 21.3206 21.8117L21.2988 21.8421C16.3663 29.1331 10.1353 53.5541 8.05243 62.0972C23.0766 74.8228 35.2074 83.7139 52.0092 94.0787Z" fill="white"/>
<path d="M126.836 35.6108H118.495V30.4648H141.17V35.5706H132.869V49.6416H126.826L126.836 35.6108Z" fill="#0D0803"/>
<path d="M164.378 30.4648V49.5612H158.536V38.5054L148.463 49.6316H143.315V30.4648H149.158V41.6312L159.221 30.4648H164.378Z" fill="#0D0803"/>
<path d="M174.441 49.6316H168.599V30.4648H174.441V37.5004H183.829V30.4648H189.671V49.5612H183.829V42.5257H174.441V49.6316Z" fill="#0D0803"/>
<path d="M193.892 49.6316V30.4648H199.734V35.6108H205.778C207.221 35.5361 208.666 35.713 210.049 36.1335C212.761 37.0634 214.534 39.6671 214.4 42.5257C214.505 45.6471 212.404 48.4146 209.364 49.1592C208.168 49.4766 206.934 49.6255 205.697 49.6015L193.892 49.6316ZM199.734 45.0083H204.77C205.547 45.0777 206.33 44.9818 207.067 44.7268C207.947 44.3467 208.516 43.4821 208.518 42.5257C208.538 41.5665 207.91 40.7133 206.987 40.4452C206.255 40.2312 205.491 40.1462 204.73 40.194H199.694L199.734 45.0083Z" fill="#0D0803"/>
<path d="M222.932 49.6316H217.09V30.4648H222.932V37.7013H224.534L231.585 30.505H238.918L229.57 39.6613L239.281 49.6316H231.504L224.534 42.3951H222.932V49.6316V49.6316Z" fill="#0D0803"/>
<path d="M263.98 40.1035C263.98 45.8123 259.266 50.2346 251.449 50.2346C243.632 50.2346 238.878 45.8123 238.878 40.1035C238.878 34.3948 243.592 29.9824 251.459 29.9824C259.326 29.9824 263.98 34.4047 263.98 40.1035ZM257.856 40.1035C257.856 36.9778 255.317 34.6862 251.449 34.6862C247.581 34.6862 245.043 36.9778 245.043 40.1035C245.043 43.2293 247.541 45.541 251.459 45.541C255.378 45.541 257.856 43.2394 257.856 40.1035Z" fill="#0D0803"/>
<path d="M295.006 40.0635C295.006 45.5311 290.614 48.3855 283.24 48.5463V50.476H277.398V48.5563C270.065 48.3955 265.673 45.5412 265.673 40.0735C265.673 34.606 270.065 31.5204 277.398 31.3595V29.46H283.24V31.3897C290.614 31.4701 295.006 34.606 295.006 40.0635ZM277.398 35.4904C273.369 35.6512 271.596 37.5006 271.596 40.0635C271.596 42.6264 273.369 44.2848 277.398 44.4456V35.4904ZM289.042 40.0635C289.042 37.5006 287.31 35.6512 283.24 35.4904V44.4456C287.31 44.2848 289.042 42.6365 289.042 40.0635Z" fill="#0D0803"/>
<path d="M326 40.0635C326 45.5311 321.608 48.3855 314.234 48.5463V50.476H308.392V48.5563C301.059 48.3955 296.667 45.5412 296.667 40.0735C296.667 34.606 301.059 31.5204 308.392 31.3595V29.46H314.234V31.3897C321.638 31.4701 326 34.606 326 40.0635ZM308.422 35.4904C304.393 35.6512 302.62 37.5006 302.62 40.0635C302.62 42.6264 304.393 44.2848 308.422 44.4456V35.4904ZM320.067 40.0635C320.067 37.5006 318.334 35.6512 314.265 35.4904V44.4456C318.334 44.2848 320.067 42.6365 320.067 40.0635Z" fill="#0D0803"/>
<path d="M174.234 55.9795L172.228 55.4023C172.003 56.3643 171.554 56.796 170.817 56.796C170.077 56.796 169.63 56.3643 169.405 55.4023L167.397 55.9795C167.815 57.9802 169.323 58.7177 170.817 58.7177C172.308 58.7177 173.816 57.9802 174.234 55.9795Z" fill="#0D0803"/>
<path d="M172.164 69.747H174.555V59.0527H172.55L169.101 65.1833V59.0527H165.988L165.217 61.2459H166.71V69.747H168.715L172.164 63.5993V69.747Z" fill="#0D0803"/>
<path d="M136.545 65.7449V63.1499C136.545 60.1574 134.765 58.877 132.518 58.877C130.303 58.877 128.49 60.1574 128.49 63.1499V65.7449C128.49 68.7375 130.271 70.0178 132.518 70.0178C134.733 70.0178 136.545 68.7375 136.545 65.7449ZM130.945 65.3922V63.5026C130.945 61.7092 131.603 61.2304 132.518 61.2304C133.465 61.2304 134.09 61.7092 134.09 63.5026V65.3922C134.09 67.1857 133.433 67.6666 132.518 67.6666C131.571 67.6666 130.945 67.1857 130.945 65.3922Z" fill="#0D0803"/>
<path d="M154.017 66.6094L151.787 65.904C151.644 67.2015 151.145 67.6654 150.326 67.6654C149.379 67.6654 148.754 67.1866 148.754 65.3932V63.5036C148.754 61.7102 149.411 61.2313 150.326 61.2313C151.048 61.2313 151.515 61.6311 151.659 62.4627L153.936 61.9197C153.535 59.8056 152.237 58.8779 150.326 58.8779C148.113 58.8779 146.301 60.1583 146.301 63.1509V65.7459C146.301 68.7384 148.081 70.0188 150.326 70.0188C152.316 70.0188 153.664 69.0099 154.017 66.6094Z" fill="#0D0803"/>
<path d="M119.986 69.7469H122.441V66.7371H123.5C125.554 66.7371 127.334 65.7603 127.334 63.3107V62.462C127.334 60.3972 126.323 59.0527 123.838 59.0527H119.264L118.495 61.2457H119.986V69.7469V69.7469ZM122.441 61.2457H123.677C124.479 61.2457 124.879 61.6306 124.879 62.5262V63.2636C124.879 64.2725 124.174 64.6231 123.403 64.6231H122.441V61.2457V61.2457Z" fill="#0D0803"/>
<path d="M141.888 61.2294C142.61 61.2294 143.075 61.6291 143.22 62.4628L145.498 61.9178C145.097 59.8037 143.797 58.876 141.888 58.876C139.673 58.876 137.86 60.1564 137.86 63.1512V65.744C137.86 68.7386 139.643 70.0191 141.888 70.0191C143.878 70.0191 145.226 69.0101 145.579 66.6075L143.349 65.9042C143.203 67.2018 142.706 67.6656 141.888 67.6656C140.941 67.6656 140.315 67.1847 140.315 65.3913V63.5038C140.315 61.7104 140.973 61.2294 141.888 61.2294Z" fill="#0D0803"/>
<path d="M208.007 66.4166V69.7469H210.447V61.2459H211.169L211.938 59.0527H206.66C204.607 59.0527 203.114 60.0937 203.114 62.3189V62.9751C203.114 64.7836 204.125 65.5359 204.815 65.8887L202.971 69.7469H205.552L207.11 66.4166H208.007V66.4166ZM205.569 63.0072V62.398C205.569 61.5195 206.131 61.2459 207.013 61.2459H208.007V64.3196H207.174C206.484 64.3196 205.569 64.1593 205.569 63.0072Z" fill="#0D0803"/>
<path d="M180.122 67.6656C179.175 67.6656 178.55 67.1847 178.55 65.3913V63.5038C178.55 61.7105 179.208 61.2295 180.122 61.2295C180.844 61.2295 181.309 61.6292 181.455 62.4628L183.732 61.9177C183.331 59.8058 182.031 58.876 180.122 58.876C177.907 58.876 176.095 60.1564 176.095 63.1511V65.744C176.095 68.7387 177.875 70.0191 180.122 70.0191C182.112 70.0191 183.46 69.0102 183.813 66.6097L181.583 65.9043C181.438 67.2018 180.941 67.6656 180.122 67.6656Z" fill="#0D0803"/>
<path d="M184.694 59.0527V69.7469H187.132V65.4248H187.886L189.876 69.7469H192.636L189.926 64.0161L192.428 59.0527H189.684L187.839 63.3278H187.132V59.0527H184.694Z" fill="#0D0803"/>
<path d="M155.397 59.0527L154.626 61.2458H156.119V69.7469H158.124L161.573 63.5993V69.7469H163.964V59.0527H161.959L158.51 65.1832V59.0527H155.397Z" fill="#0D0803"/>
<path d="M195.668 69.7459L196.198 67.8735H199.31L199.938 69.7459H202.359L198.477 59.0518H195.621L194.85 61.2471H196.133L193.263 69.7459H195.668ZM197.659 62.863L198.653 65.8727H196.776L197.659 62.863Z" fill="#0D0803"/>
<path d="M217.054 61.2487H218.547V69.7498H221V61.2487H223.793V69.7498H226.246V59.0557H217.825L217.054 61.2487Z" fill="#0D0803"/>
<path d="M232.841 59.0537H228.269L227.498 61.2469H228.991V69.7479H231.446V66.7382H232.505C234.559 66.7382 236.339 65.7614 236.339 63.3117V62.4652C236.339 60.3983 235.328 59.0537 232.841 59.0537ZM233.884 63.2646C233.884 64.2736 233.177 64.6263 232.408 64.6263H231.446V61.2469H232.68C233.484 61.2469 233.884 61.6316 233.884 62.5293V63.2646V63.2646Z" fill="#0D0803"/>
<path d="M240.046 65.4257H243.206L243.992 63.2476H240.046V61.2469H244.041L244.828 59.0537H237.591V69.7478H244.281L245.067 67.5227H240.046V65.4257Z" fill="#0D0803"/>
<path d="M251.004 64.001L248.196 59.0547H246.336V69.7489H248.677V63.9219L250.218 66.5619H251.726L253.266 63.9219V69.7489H255.608V59.0547H253.748L251.004 64.001Z" fill="#0D0803"/>
<path d="M261.241 62.1124H260.215V59.0557H257.76V69.7499H261.577C264.065 69.7499 265.076 68.2921 265.076 66.1139V65.4897C265.076 63.0401 263.295 62.1124 261.241 62.1124ZM262.621 66.0027C262.621 67.1721 262.124 67.5546 261.417 67.5546H260.215V64.2264H261.145C261.914 64.2264 262.621 64.53 262.621 65.5389V66.0027Z" fill="#0D0803"/>
<path d="M268.942 65.4257H272.102L272.889 63.2476H268.942V61.2469H272.938L273.724 59.0537H266.487V69.7478H273.178L273.964 67.5227H268.942V65.4257Z" fill="#0D0803"/>
<path d="M279.611 59.0537H275.04L274.269 61.2469H275.762V69.7479H278.217V66.7382H279.275C281.33 66.7382 283.11 65.7614 283.11 63.3117V62.4652C283.11 60.3983 282.099 59.0537 279.611 59.0537ZM280.655 63.2646C280.655 64.2736 279.948 64.6263 279.179 64.6263H278.217V61.2469H279.451C280.254 61.2469 280.655 61.6316 280.655 62.5293V63.2646V63.2646Z" fill="#0D0803"/>
<path d="M283.896 65.5227H288.406L289.271 63.041H284.762L283.896 65.5227Z" fill="#0D0803"/>
<path d="M290.205 61.2477H291.696V64.4006C291.696 66.1149 291.584 67.5557 290.316 67.5557H289.644L290.413 69.7488H291.392C293.365 69.7488 294.022 67.5877 294.022 64.3365V61.2477H295.98V69.7488H298.436V59.0547H290.974L290.205 61.2477Z" fill="#0D0803"/>
<path d="M303.569 65.1861V59.0557H300.457L299.688 61.2488H301.179V69.7498H303.184L306.635 63.6022V69.7498H309.024V59.0557H307.018L303.569 65.1861Z" fill="#0D0803"/>
<path d="M318.122 59.0547H311.479V69.7489H313.934V61.2478H317.321L318.122 59.0547Z" fill="#0D0803"/>
<path d="M322.118 59.0537H319.262L318.491 61.249H319.774L316.903 69.7478H319.309L319.838 67.8753H322.951L323.577 69.7478H326L322.118 59.0537ZM320.417 65.8746L321.299 62.8649L322.293 65.8746H320.417Z" fill="#0D0803"/>
</g>
<defs>
<clipPath id="clip0">
<rect width="326" height="100" fill="white"/>
</clipPath>
</defs>
</svg>
